<svg xmlns="http://www.w3.org/2000/svg" xmlns:xlink="http://www.w3.org/1999/xlink" viewBox="0 0 578.43 359.47"><defs><style>.cls-1{fill:none;}.cls-2{fill:#f5dacd;}.cls-3{fill:#a4b1b6;}.cls-4{fill:#11212d;}.cls-5{fill:#b4c7cd;}.cls-6{fill:#d0dfe3;}.cls-7{fill:#fff;}.cls-8{clip-path:url(#clip-path);}.cls-9{fill:#fffdf5;}.cls-10{fill:#f9e8af;}.cls-11{fill:#00a1b5;}.cls-12{fill:#ffa27f;}.cls-13{fill:#006889;}.cls-14{fill:#fbc7a4;}.cls-15{fill:#ecab82;}.cls-16{fill:#f58553;}.cls-17{fill:#db6334;}.cls-18{fill:#e8cd70;}</style><clipPath id="clip-path"><circle class="cls-1" cx="217.35" cy="187.54" r="54.52" transform="translate(-68.95 208.62) rotate(-45)"/></clipPath></defs><g id="Layer_2" data-name="Layer 2"><g id="Layer_1-2" data-name="Layer 1"><path class="cls-2" d="M28.73,320.7H283.38l276.5-.42c5.54-12.47-6-26.47-18.32-31.25s-26.33-4.78-37.75-11.62c-20.67-12.37-25.14-41.54-41-60.07-17.34-20.19-46.35-25.6-64.25-45.25-16-17.54-20.24-43-29.56-65.2-20.09-47.76-68.15-81.58-118.11-81.77s-98.77,34-116.37,82.83c-7.16,19.87-10.49,43.2-26.5,56.28C98.52,172,86.26,174.56,74.6,177.59S50.74,184.75,43,194.38s-8.34,26.35,1.67,33.28c-10.34,13.77-27.36,33.39-27.43,50.88A82.75,82.75,0,0,0,28.73,320.7Z"/><path class="cls-3" d="M578.43,332.78c0-6.63-129.49-12-289.22-12S0,326.15,0,332.78c0,3,25.92,5.69,68.86,7.78-11.11,2-18.07,4.85-18.07,8,0,6,25.1,10.89,56.06,10.89s56.05-4.87,56.05-10.89c0-1.86-2.38-3.6-6.57-5.13,39.69.86,84.75,1.34,132.53,1.34,7.94,6,55.68,10.68,113.39,10.68,63.27,0,114.56-5.58,114.56-12.46,0-.92-.93-1.81-2.67-2.68C554.34,338.27,578.43,335.64,578.43,332.78Z"/><path class="cls-4" d="M464.55,319.37l-332.26,2.88c-4,0-7.28-4.26-7.28-9.6V135c0-5.33,3.25-10.2,7.28-10.88L464.55,68.43c6.51-1.09,11.83,3.57,11.83,10.41v228C476.38,313.71,471.06,319.31,464.55,319.37Z"/><path class="cls-4" d="M460.36,319.93l-336.14,2.91c-4.08,0-7.36-4.31-7.36-9.71V133.44c0-5.4,3.28-10.33,7.36-11L460.36,66.06c6.59-1.11,12,3.61,12,10.53V307.28C472.33,314.21,467,319.87,460.36,319.93Z"/><path class="cls-5" d="M458.74,319.37l-332.26,2.88c-4,0-7.27-4.26-7.27-9.6V135c0-5.33,3.24-10.2,7.27-10.88L458.74,68.43c6.52-1.09,11.84,3.57,11.84,10.41v228C470.58,313.71,465.26,319.31,458.74,319.37Z"/><path class="cls-6" d="M126.48,124.15c-4,.68-7.27,5.55-7.27,10.88V312.65c0,5.34,3.24,9.63,7.27,9.6l3.39,0C141.15,254.6,153.6,187,159.46,118.62Z"/><circle class="cls-7" cx="217.35" cy="187.54" r="54.52" transform="translate(-68.95 208.62) rotate(-45)"/><path class="cls-6" d="M251.12,144.76c9.8,14.07,7.4,34.88,1,50.55-8,18.69-26.69,29.36-46.27,31.14a65.36,65.36,0,0,1-31.65-5.63,54.51,54.51,0,1,0,76.94-76.06Z"/><path class="cls-5" d="M217.35,242.48c-23.73,0-43-24.64-43-54.94s19.3-54.93,43-54.93,43,24.64,43,54.93S241.07,242.48,217.35,242.48Zm0-109c-23.27,0-42.19,24.26-42.19,54.09s18.92,54.1,42.19,54.1,42.19-24.26,42.19-54.1S240.61,133.45,217.35,133.45Z"/><path class="cls-5" d="M217.35,242.48c-17.63,0-32-24.64-32-54.94s14.33-54.93,32-54.93,32,24.64,32,54.93S235,242.48,217.35,242.48Zm0-109c-17.17,0-31.13,24.26-31.13,54.09s14,54.1,31.13,54.1,31.12-24.26,31.12-54.1S234.51,133.45,217.35,133.45Z"/><path class="cls-5" d="M217.35,242.48c-11.06,0-20-24.64-20-54.94s9-54.93,20-54.93,20,24.64,20,54.93S228.4,242.48,217.35,242.48Zm0-109c-10.59,0-19.21,24.26-19.21,54.09s8.62,54.1,19.21,54.1,19.21-24.26,19.21-54.1S227.94,133.45,217.35,133.45Z"/><path class="cls-5" d="M217.35,242.48c-5.49,0-8.77-27.93-8.77-54.94s3.28-54.93,8.77-54.93,8.77,27.93,8.77,54.93S222.84,242.48,217.35,242.48Zm0-109c-3.83,0-7.94,21.73-7.94,54.09s4.11,54.1,7.94,54.1,7.93-21.73,7.93-54.1S221.18,133.45,217.35,133.45Z"/><g class="cls-8"><path class="cls-5" d="M163,189.57l-.33-.77a167.5,167.5,0,0,1,113.89-5.67l-.25.8A166.67,166.67,0,0,0,163,189.57Z"/><path class="cls-5" d="M161.77,177.37l-.43-.72a134.64,134.64,0,0,1,107.15-12.53l-.24.8A133.76,133.76,0,0,0,161.77,177.37Z"/><path class="cls-5" d="M168.83,157.65l-.46-.7c26.43-17.31,61.44-21.76,91.36-11.64l-.26.8C229.78,136.06,195.05,140.48,168.83,157.65Z"/><path class="cls-5" d="M276.48,208.31a196,196,0,0,0-112.69-1.05l-.24-.8a196.93,196.93,0,0,1,113.18,1Z"/><path class="cls-5" d="M265.48,225.86a265.24,265.24,0,0,0-92.39-.59l-.14-.82a265.93,265.93,0,0,1,92.68.59Z"/><path class="cls-5" d="M222.92,235.56a274.57,274.57,0,0,1-43.4-3.44l.13-.82A274.65,274.65,0,0,0,253.88,233l.1.83A275.72,275.72,0,0,1,222.92,235.56Z"/></g><path class="cls-3" d="M458.5,68.81l-125.25,21L196.2,322l262.3-2.27c6.51-.06,11.83-5.65,11.83-12.5v-228C470.33,72.38,465,67.72,458.5,68.81Z"/><path class="cls-6" d="M298.09,191.27a1.89,1.89,0,0,1-1.87-2V164a2.39,2.39,0,0,1,2-2.35l46-6.36a1.92,1.92,0,0,1,2.22,2v26.25a2.47,2.47,0,0,1-2.12,2.4l-46,5.33Zm46.44-35.14-.18,0-46,6.36a1.57,1.57,0,0,0-1.26,1.52v25.28a1,1,0,0,0,1.16,1.11l46-5.33a1.6,1.6,0,0,0,1.38-1.57V157.27A1.08,1.08,0,0,0,344.53,156.13Z"/><rect class="cls-6" x="315.97" y="159.5" width="0.84" height="29.14"/><rect class="cls-6" x="301.52" y="165.53" width="44.64" height="0.83" transform="translate(-18.71 43.18) rotate(-7.42)"/><rect class="cls-6" x="301.74" y="175.99" width="44.64" height="0.83" transform="translate(-20.04 43.27) rotate(-7.41)"/><path class="cls-6" d="M354,223.56a2.68,2.68,0,0,1-1.9-.78,2.82,2.82,0,0,1-.82-2l.06-36.84a3.12,3.12,0,0,1,2.81-3.09l68.6-4.93a2.86,2.86,0,0,1,2.24.81,2.76,2.76,0,0,1,.81,2L425.78,217a3.2,3.2,0,0,1-3,3.15Zm69-46.83h-.16l-68.6,4.93a2.29,2.29,0,0,0-2,2.26l-.05,36.85a2,2,0,0,0,.57,1.42,1.83,1.83,0,0,0,1.31.54h.1l68.6-3.44a2.34,2.34,0,0,0,2.21-2.31l.06-38.26a1.95,1.95,0,0,0-2-2Z"/><path class="cls-4" d="M288.41,95c-3,14,5.41,39.75,11.69,52.61s8,14.95,10.1,29.11c1.37,9.18,6.05,18.08,11.31,25.73,6.36,9.26,13.68,14.35,24.91,14.68s23.76-3.58,32.66,3.27c6.57,5.05,22-1.85,28.95,2.64,10.65,6.89,13.16,19.85,24.58,25.37,13.95,6.75,18,24.55,28.1,36.27,4.59,5.3,11,10.59,10.3,17.57-.44,4.45-3.93,8.12-8,10s-8.59,2.38-13,2.77c-56.57,5-113.5,2.87-170.26.76Q280.94,201,271.61,86.4a9.65,9.65,0,0,0,8.8,0Z"/><path class="cls-9" d="M151.88,241.23c-2.88,1.62-2.87,5.69-4.28,8.67-3.69,7.83-17.12,7.93-19.21,16.33-1.2,4.86,2.37,10,.86,14.82-.81,2.57-2.92,4.45-4.63,6.52a24.69,24.69,0,0,0-4.89,21.21q76.05-.15,152,5.46-3.78-48.69-7.55-97.39c-.23-3.06-.51-6.25-2.1-8.89s-4.91-4.49-7.78-3.39c1.12,5-3.13,9.89-8,11.47s-10.14.8-15.23.26-10.55-.72-15,1.86c-4.21,2.45-6.7,7-9.41,11s-6.32,8.12-11.15,8.74c-7.49,1-14.67-6.75-21.78-4.23-4.62,1.63-7.41,7.19-12.27,7.69C158.23,241.7,154.72,239.64,151.88,241.23Z"/><path class="cls-9" d="M315,224.78a22.41,22.41,0,0,0,26.3,6.95c4.81-2.14,9-6.06,14.2-6.6a39.63,39.63,0,0,1,7,.37c5.94.41,11.82-1.11,17.76-1.44,8.87-.49,17.64,1.65,26.26,3.78,6.26,1.54,12.83,3.25,17.44,7.76,3.33,3.25,5.29,7.65,8.26,11.23,1.88,2.27,4.17,4.22,5.76,6.7,2,3.15,2.76,6.92,4,10.44,3.62,10,11.43,17.81,18.68,25.6,4.65,5,9.48,11.85,6.64,18.06l-58.8,3.2-154.35-.37c-.45-6,4-11.14,7.73-15.92a85.42,85.42,0,0,0,17.38-43.42c.91-8.83.43-17.82,2.19-26.52.82-4,2.28-8.18,5.51-10.71,4.38-3.41,10.91-2.75,15.68.1A41.21,41.21,0,0,1,315,224.78Z"/><path class="cls-7" d="M120.18,130.06a13.22,13.22,0,0,0-1,5v5.9L470.58,86.42V78.84a11,11,0,0,0-2.42-7.07Z"/><path class="cls-10" d="M439.36,276.55a23.42,23.42,0,0,0-28.89-1.65c8.84-6.74,10.81-21.58,5.89-31.75s-14.94-15.68-25-17.08-20,.74-29.79,3c-5.07,1.18-10.17,2.39-15.17,2s-9.9-2.72-12.67-7.36c-2.2-3.69-3-8.7-6-11.43-3.15-2.87-7.76-2.29-11.69-.75s-7.69,3.89-11.68,4.31c-8.79.93-16.27-9.75-14.29-20.24,1.42-7.49,3.63-11.7,3.83-19.29.26-9.73-6.16-11-8.91-19.62-1.61-5.1-1.9-17.9-3.5-32.11L279,85.27l-13.35,2.46-2.45,39.64c-1.55,14.47-3.33,20.68-4.89,26.12-2.62,9.17-10,16.77-9.8,26.09.19,7.28,5.11,12.53,6.45,19.53,1.89,9.86-5.18,21.52-13.28,22-3.61.24-7-1.4-10.46-2.21s-7.43-.61-10.13,2.53c-2.54,3-3.19,7.7-5.05,11.39a15.9,15.9,0,0,1-10.44,8.32c-4,1-8.07.54-12,.12-7.49-.8-15-1.43-22.29.92a28,28,0,0,0-17.46,16.84,29.66,29.66,0,0,0-1,16.76,5.07,5.07,0,0,1-4.14,6.37,15,15,0,0,0-10,5.61C135,292.23,133,299,133,305.54L449,300.75C449,292.42,445.14,281.74,439.36,276.55Z"/><path class="cls-9" d="M277.19,180.11c1.33-3.3,4.51-5.72,5.3-9.2,1-4.47-2.27-8.63-4.6-12.58-6.54-11.05-6.42-24.66-6.1-37.5l-4.87.27c7.09,19.68-10.5,41.51-4.74,61.63,1.43,5,4.22,9.48,6,14.35s2.57,10.58-.05,15.07c-3.39,5.83-11.64,8.27-13.39,14.79-1.6,5.91,3.08,11.48,5,17.29,1.71,5.17,1.11,11.22-2.22,15.52s-9.5,6.42-14.55,4.4c-5.67-2.27-10.2-9.17-16.08-7.51-4.78,1.35-6.15,7.47-5.92,12.43s1,10.56-2.21,14.34c-2.6,3-7.07,3.81-11,3.33s-7.78-2-11.73-2.63c-14.36-2.39-29.64,8.2-32.45,22.48q104.83,2.24,209.69-2.17c2.29-5.09,4.62-10.4,4.44-16S374,277,368.5,276.05c-5.9-1-12.15,3.78-17.63,1.36-5.28-2.34-5.95-9.47-9.28-14.18-3.69-5.19-10.62-7.11-17-6.91s-12.53,2.14-18.84,3.05-13.2.62-18.38-3.09-7.52-11.77-3.45-16.67c1.46-1.76,3.52-2.92,5-4.63s2.38-4.42,1-6.22c-2.64-3.41-10.36-.53-11.15-4.77-.43-2.32,2.15-4,3.21-6.1s.54-4.56,0-6.83q-2.28-10-4.58-19.94C276.61,187.48,275.8,183.57,277.19,180.11Z"/><path class="cls-11" d="M119.21,306.21v6.44c0,5.34,3.24,9.63,7.27,9.6l332.26-2.88c6.52-.06,11.84-5.66,11.84-12.5V298.6Z"/><path class="cls-7" d="M418.14,130.78l-46,5.34a1.46,1.46,0,0,1-1.63-1.53V109.31a2,2,0,0,1,1.63-1.94l46-6.36a1.51,1.51,0,0,1,1.75,1.54V128.8A2,2,0,0,1,418.14,130.78Z"/><path class="cls-6" d="M362.53,150.58l-46,5.33a1.46,1.46,0,0,1-1.63-1.52V129.11a2,2,0,0,1,1.63-1.94l46-6.36a1.5,1.5,0,0,1,1.75,1.54V148.6A2,2,0,0,1,362.53,150.58Z"/><polygon class="cls-3" points="413.62 114.29 376.52 119.06 376.52 118.58 413.62 113.8 413.62 114.29"/><polygon class="cls-3" points="413.62 119.96 376.52 124.58 376.52 124.1 413.62 119.47 413.62 119.96"/><polygon class="cls-3" points="413.62 125.64 376.52 130.09 376.52 129.61 413.62 125.14 413.62 125.64"/><path class="cls-7" d="M400.82,163.45,356,167.6a1.47,1.47,0,0,1-1.59-1.55v-25a1.89,1.89,0,0,1,1.59-1.87l44.86-5.16a1.51,1.51,0,0,1,1.7,1.56v25.91A1.94,1.94,0,0,1,400.82,163.45Z"/><polygon class="cls-3" points="396.1 148.07 359.96 151.85 359.96 151.37 396.1 147.58 396.1 148.07"/><polygon class="cls-3" points="396.1 153.66 359.96 157.29 359.96 156.82 396.1 153.18 396.1 153.66"/><polygon class="cls-3" points="396.1 159.26 359.96 162.74 359.96 162.26 396.1 158.78 396.1 159.26"/><path class="cls-7" d="M440.07,193.21l-47.53,3.22a1.57,1.57,0,0,1-1.67-1.62V169.13a1.92,1.92,0,0,1,1.67-1.9l47.53-4.29a1.63,1.63,0,0,1,1.81,1.65v26.68A2,2,0,0,1,440.07,193.21Z"/><polygon class="cls-3" points="434.84 177.34 396.57 180.4 396.57 179.91 434.84 176.84 434.84 177.34"/><polygon class="cls-3" points="434.84 183.11 396.57 186 396.57 185.52 434.84 182.6 434.84 183.11"/><polygon class="cls-3" points="434.84 188.87 396.57 191.6 396.57 191.12 434.84 188.37 434.84 188.87"/><path class="cls-6" d="M419.89,108.44v-5.89a1.51,1.51,0,0,0-1.75-1.54l-46,6.36a2,2,0,0,0-1.63,1.94V115Z"/><polygon class="cls-3" points="417.17 106.54 413.45 107.03 413.45 103.25 417.17 102.74 417.17 106.54"/><path class="cls-6" d="M402.52,142v-6.4a1.51,1.51,0,0,0-1.7-1.56L356,139.22a1.89,1.89,0,0,0-1.59,1.87v6.17Z"/><polygon class="cls-3" points="400.46 139.79 396.84 140.19 396.84 136.46 400.46 136.05 400.46 139.79"/><path class="cls-6" d="M441.88,171v-6.41a1.63,1.63,0,0,0-1.81-1.65l-47.53,4.29a1.92,1.92,0,0,0-1.67,1.9v6.16Z"/><polygon class="cls-3" points="439.47 169.34 435.63 169.67 435.63 165.83 439.47 165.49 439.47 169.34"/><path class="cls-4" d="M451.62,327.61H27.86A5.82,5.82,0,0,1,22,321.79v-2.56h435.4v2.56A5.82,5.82,0,0,1,451.62,327.61Z"/><path class="cls-10" d="M457.43,322c0-.08,0-.15,0-.23v-2.56H22v2.56c0,.08,0,.15,0,.23Z"/><path class="cls-2" d="M525.56,128.91a59.77,59.77,0,1,0-61.68,59.72l-6.36,16.75q10.05-8.82,19.94-17.85A59.77,59.77,0,0,0,525.56,128.91Z"/><path class="cls-2" d="M439.76,158.45c-5.38-24.24-17.83-49.57-14.12-73.79a59.74,59.74,0,0,0,16.53,99.13A109.07,109.07,0,0,0,439.76,158.45Z"/><path class="cls-2" d="M525.56,128.91a59.57,59.57,0,0,0-19.36-44c3,21.46-11.42,40.72-22.18,59.36-7.22,13.34-6.68,28.15-6.25,43.21A59.76,59.76,0,0,0,525.56,128.91Z"/><path class="cls-10" d="M501.1,87.15a44.93,44.93,0,1,0-64.53,40.42,14.29,14.29,0,0,1,8,12.85v8.92h23.17v-8.92a14.21,14.21,0,0,1,7.94-12.81A44.91,44.91,0,0,0,501.1,87.15Z"/><path class="cls-12" d="M487,54.45c8.58,14.82,9.1,35,.15,49.1a59.75,59.75,0,0,1-45.58,28,14.31,14.31,0,0,1,3.06,8.83v8.92h23.17v-8.92a14.21,14.21,0,0,1,7.94-12.81A44.91,44.91,0,0,0,487,54.45Z"/><path class="cls-4" d="M460,177.9h-8.26a5,5,0,0,1-5-5V148.59H465v24.32A5,5,0,0,1,460,177.9Z"/><rect class="cls-13" x="442.74" y="139.41" width="26.24" height="33.41"/><rect class="cls-11" x="445.89" y="139.41" width="6.68" height="33.41"/><path class="cls-7" d="M465.78,47a41.63,41.63,0,0,0-42.31,66.71c-4.33-9.68-3.42-21.25,1.25-30.77s12.81-17,22.09-22.19,19.65-8,30.1-9.75Z"/><path class="cls-4" d="M442.44,147.53a.32.32,0,0,1-.05-.63l26.79-4a.3.3,0,0,1,.36.26.32.32,0,0,1-.27.36l-26.78,4Z"/><path class="cls-4" d="M442.44,152.06a.31.31,0,0,1-.31-.26.32.32,0,0,1,.26-.36l26.79-4a.32.32,0,0,1,.36.27.31.31,0,0,1-.27.35l-26.78,4Z"/><path class="cls-4" d="M442.44,156.6a.31.31,0,0,1-.31-.27.31.31,0,0,1,.26-.35l26.79-4a.31.31,0,0,1,.36.26.32.32,0,0,1-.27.36l-26.78,4Z"/><path class="cls-4" d="M442.44,161.14a.32.32,0,0,1-.05-.63l26.79-4a.3.3,0,0,1,.36.26.32.32,0,0,1-.27.36l-26.78,4Z"/><path class="cls-4" d="M442.44,165.67a.31.31,0,0,1-.31-.26.32.32,0,0,1,.26-.36l26.79-4a.32.32,0,0,1,.36.27.31.31,0,0,1-.27.35l-26.78,4Z"/><path class="cls-2" d="M103.39,84.27l1.65.56a12.65,12.65,0,0,0,.92-1.55l-1.3-1.15a11.68,11.68,0,0,0,.79-2.29l1.74-.16a14.58,14.58,0,0,0,.21-1.76l-1.66-.52c0-.07,0-.13,0-.2a12.24,12.24,0,0,0-.22-2.28l1.51-.86a11.67,11.67,0,0,0-.51-1.65l-1.71.19a12.07,12.07,0,0,0-1.25-2.22l1-1.4a13.68,13.68,0,0,0-1.12-1.28l-1.5.88A11.44,11.44,0,0,0,99.89,67l.38-1.7a11.77,11.77,0,0,0-1.53-.7l-1,1.42a11.54,11.54,0,0,0-2.57-.56l-.35-1.7c-.27,0-.55,0-.83,0s-.57,0-.84,0l-.35,1.7a11.54,11.54,0,0,0-2.57.56l-1-1.42a11.77,11.77,0,0,0-1.53.7l.38,1.7A11.44,11.44,0,0,0,86,68.58l-1.5-.88A13.68,13.68,0,0,0,83.35,69l1,1.4a12.07,12.07,0,0,0-1.25,2.22l-1.71-.19a11.67,11.67,0,0,0-.51,1.65l1.51.86a12.24,12.24,0,0,0-.22,2.28c0,.07,0,.13,0,.2l-1.66.52a14.58,14.58,0,0,0,.21,1.76l1.74.16a11.68,11.68,0,0,0,.79,2.29L82,83.28a12.65,12.65,0,0,0,.92,1.55l1.65-.56A11.58,11.58,0,0,0,86.17,86l-.73,1.58a13,13,0,0,0,1.49,1.06l1.28-1.18a11.85,11.85,0,0,0,2.13.93v1.74a13,13,0,0,0,1.8.37l.69-1.59A11.12,11.12,0,0,0,94,89a10.93,10.93,0,0,0,1.15-.06l.69,1.59a13,13,0,0,0,1.8-.37V88.4a11.85,11.85,0,0,0,2.13-.93L101,88.65a13,13,0,0,0,1.49-1.06L101.78,86A11.58,11.58,0,0,0,103.39,84.27Z"/><path class="cls-2" d="M81.15,94.89a19.6,19.6,0,0,0,.28-2.32l-2.19-.68a2.44,2.44,0,0,0,0-.27,15.65,15.65,0,0,0-.29-3l2-1.14a18.3,18.3,0,0,0-.67-2.18L78,85.56a15.4,15.4,0,0,0-1.65-2.94l1.37-1.85a18.26,18.26,0,0,0-1.48-1.69l-2,1.17a15.81,15.81,0,0,0-2.76-2L72,76A17.72,17.72,0,0,0,70,75l-1.33,1.87a15.16,15.16,0,0,0-3.39-.74l-.45-2.24c-.37,0-.74,0-1.11,0s-.74,0-1.11,0l-.45,2.24a15.16,15.16,0,0,0-3.39.74L57.44,75a17.58,17.58,0,0,0-2,.92l.49,2.24a15.37,15.37,0,0,0-2.75,2l-2-1.17a18.37,18.37,0,0,0-1.49,1.69l1.37,1.85a15.4,15.4,0,0,0-1.65,2.94l-2.26-.26a18.34,18.34,0,0,0-.68,2.18l2,1.14a15.65,15.65,0,0,0-.29,3c0,.09,0,.18,0,.27L46,92.57a17.71,17.71,0,0,0,.27,2.32l2.3.22a15.58,15.58,0,0,0,1,3l-1.71,1.51a17.38,17.38,0,0,0,1.21,2L51.3,101a15.86,15.86,0,0,0,2.12,2.29l-1,2.09a17.7,17.7,0,0,0,2,1.39l1.7-1.55a15.64,15.64,0,0,0,2.81,1.23l0,2.29a16.88,16.88,0,0,0,2.37.49l.92-2.1c.5,0,1,.07,1.52.07s1,0,1.53-.07l.91,2.1a16.88,16.88,0,0,0,2.37-.49l0-2.29a15.64,15.64,0,0,0,2.81-1.23l1.7,1.55a16.8,16.8,0,0,0,2-1.39l-1-2.09A15.86,15.86,0,0,0,76.14,101l2.18.73a17.38,17.38,0,0,0,1.21-2l-1.71-1.51a14.94,14.94,0,0,0,1-3Zm-17.46,4.5a7.85,7.85,0,1,1,7.86-7.85A7.84,7.84,0,0,1,63.69,99.39Z"/><path class="cls-2" d="M125.81,121c0-.33,0-.67,0-1l4.27-.9c-.06-.83-.14-1.65-.26-2.46h-4.36c-.11-.66-.25-1.32-.41-2l4-1.77c-.22-.8-.47-1.58-.76-2.35l-4.27.91q-.37-.93-.81-1.83l3.53-2.56c-.39-.73-.8-1.44-1.24-2.14l-4,1.78c-.37-.56-.77-1.1-1.18-1.62l2.92-3.24c-.52-.64-1.08-1.25-1.66-1.84L118,102.57c-.48-.47-1-.92-1.49-1.34l2.18-3.77c-.64-.52-1.31-1-2-1.46l-2.92,3.24c-.56-.35-1.14-.69-1.73-1l1.35-4.15c-.74-.36-1.49-.7-2.26-1L109,96.86c-.63-.23-1.27-.43-1.91-.61l.46-4.35c-.8-.2-1.61-.36-2.42-.5l-1.35,4.14c-.65-.09-1.32-.16-2-.2L101.34,91c-.41,0-.82,0-1.24,0l-1.24,0-.45,4.34c-.67,0-1.33.11-2,.2L95.08,91.4c-.82.14-1.63.3-2.42.5l.46,4.35c-.65.18-1.29.38-1.91.61L89,93.09c-.77.3-1.53.64-2.26,1l1.35,4.15c-.59.31-1.17.65-1.74,1L83.48,96c-.69.46-1.35.94-2,1.46l2.18,3.77c-.51.42-1,.87-1.48,1.34L78.65,100c-.57.59-1.13,1.2-1.66,1.84l2.93,3.24c-.42.52-.81,1.06-1.19,1.62l-4-1.78c-.44.7-.86,1.41-1.24,2.14l3.53,2.56c-.3.6-.57,1.21-.82,1.83L72,110.54c-.28.77-.53,1.55-.76,2.35l4,1.77c-.16.64-.29,1.3-.41,2H70.41c-.12.81-.2,1.63-.25,2.46l4.26.9c0,.33,0,.67,0,1s0,.67,0,1l-4.26.9c0,.83.13,1.66.25,2.47h4.36c.12.66.25,1.32.41,2l-4,1.77c.23.8.48,1.59.76,2.35l4.27-.91c.25.62.52,1.24.82,1.83l-3.53,2.56c.38.73.8,1.45,1.24,2.14l4-1.77c.38.55.77,1.09,1.19,1.61L77,140.13c.53.63,1.09,1.24,1.66,1.83l3.53-2.57c.47.47,1,.92,1.48,1.35l-2.18,3.77c.65.51,1.31,1,2,1.46l2.91-3.25c.57.36,1.15.69,1.74,1l-1.35,4.14c.73.37,1.49.7,2.26,1l2.17-3.78c.62.23,1.26.43,1.91.62l-.46,4.34c.79.2,1.6.37,2.42.51l1.34-4.15c.66.09,1.32.16,2,.2l.45,4.34,1.24,0c.42,0,.83,0,1.24,0l.45-4.34c.67,0,1.34-.11,2-.2l1.35,4.15c.81-.14,1.62-.31,2.42-.51l-.46-4.34c.64-.19,1.28-.39,1.91-.62l2.17,3.78c.77-.31,1.52-.64,2.26-1l-1.35-4.14c.59-.32,1.17-.65,1.73-1l2.92,3.25c.68-.46,1.35-.95,2-1.46l-2.18-3.77c.52-.43,1-.88,1.49-1.35l3.52,2.57c.58-.59,1.14-1.2,1.66-1.83l-2.92-3.25c.41-.52.81-1.06,1.18-1.61l4,1.77c.44-.69.85-1.41,1.24-2.14l-3.53-2.56c.29-.59.56-1.21.81-1.83l4.27.91c.29-.76.54-1.55.76-2.35l-4-1.77c.16-.64.3-1.3.41-2h4.36c.12-.81.2-1.64.26-2.47l-4.27-.9C125.79,121.65,125.81,121.32,125.81,121ZM100.1,141.54A20.56,20.56,0,1,1,120.66,121,20.56,20.56,0,0,1,100.1,141.54Z"/><circle class="cls-2" cx="60.16" cy="155.02" r="10.68"/><path class="cls-2" d="M81.34,159.09a21.57,21.57,0,0,0,.34-2.81L79,155.45c0-.11,0-.22,0-.32a19.17,19.17,0,0,0-.36-3.66l2.44-1.38a22,22,0,0,0-.82-2.65l-2.76.31a19.21,19.21,0,0,0-2-3.57l1.66-2.24a23.49,23.49,0,0,0-1.8-2.06L73,141.3a19,19,0,0,0-3.35-2.49l.61-2.73A22.58,22.58,0,0,0,67.8,135l-1.62,2.27a18.66,18.66,0,0,0-4.12-.9l-.56-2.72c-.44,0-.89-.05-1.34-.05s-.9,0-1.35.05l-.55,2.72a18.66,18.66,0,0,0-4.12.9L52.52,135a21.75,21.75,0,0,0-2.46,1.11l.61,2.73a19,19,0,0,0-3.35,2.49l-2.4-1.42a23.49,23.49,0,0,0-1.8,2.06l1.66,2.24a19.21,19.21,0,0,0-2,3.57L40,147.44a22,22,0,0,0-.82,2.65l2.44,1.38a19.17,19.17,0,0,0-.36,3.66c0,.1,0,.21,0,.32l-2.65.83a20,20,0,0,0,.34,2.81l2.78.27A19.25,19.25,0,0,0,43,163l-2.08,1.84a22.65,22.65,0,0,0,1.47,2.47l2.66-.88a18.79,18.79,0,0,0,2.57,2.78l-1.16,2.54a22.24,22.24,0,0,0,2.38,1.69l2.06-1.89a18.67,18.67,0,0,0,3.42,1.5l0,2.78a19.89,19.89,0,0,0,2.88.6l1.12-2.56c.61.06,1.22.1,1.85.1s1.24,0,1.85-.1l1.12,2.56a19.89,19.89,0,0,0,2.88-.6l0-2.78a18.67,18.67,0,0,0,3.42-1.5l2.06,1.89a22.24,22.24,0,0,0,2.38-1.69l-1.16-2.54a18.79,18.79,0,0,0,2.57-2.78l2.66.88a22.65,22.65,0,0,0,1.47-2.47L77.3,163a19.25,19.25,0,0,0,1.26-3.68Zm-21.18,8.39A12.46,12.46,0,1,1,72.62,155,12.47,12.47,0,0,1,60.16,167.48Z"/><path class="cls-11" d="M254,89.79a32.22,32.22,0,0,1-5.13,2.79,4.08,4.08,0,0,0-2.4,3.66c-.22,5-3.28,9.85-7.3,13.05a40.08,40.08,0,0,1-11.67,6,5.36,5.36,0,0,0-3.38,6.4q.73,2.77,1.46,5.53A81.24,81.24,0,0,1,254,120.65Z"/><path class="cls-4" d="M248.9,92.58a3.38,3.38,0,0,0-.5.27v28.29c1.87-.22,3.75-.4,5.63-.49V89.79A32.22,32.22,0,0,1,248.9,92.58Z"/><path class="cls-13" d="M289.34,124.35V67.5A127.55,127.55,0,0,0,274,6.38l-3-5.5a1.53,1.53,0,0,0-2.79,0l-3.19,6a127.77,127.77,0,0,0-14.5,59.58v57.83Z"/><path class="cls-11" d="M301.84,109.29c-4-3.2-7.08-8-7.29-13.05a4.11,4.11,0,0,0-2.38-3.65,32.83,32.83,0,0,1-5.51-3v31.09a81.37,81.37,0,0,1,28.77,6.62q.74-2.76,1.46-5.53a5.36,5.36,0,0,0-3.37-6.4A40.14,40.14,0,0,1,301.84,109.29Z"/><path class="cls-4" d="M290.66,91.89a31.92,31.92,0,0,1-4-2.34v31.09c1.33.06,2.67.15,4,.28Z"/><path class="cls-7" d="M269.31,124.35V0a1.67,1.67,0,0,0-1.1.87l-3.19,6a127.77,127.77,0,0,0-14.5,59.58v57.83Z"/><path class="cls-11" d="M280.79,124.35l-.34-55.92c0-22.59-.93-43.8-8.09-62L270.2.88c-.46-1.19-1.53-1.17-2,0l-2.28,6c-6.78,17.91-10.37,38.53-10.37,59.58l-.23,57.83Z"/><path class="cls-7" d="M260.69,121c0-.29-.44-29.34.44-65S268.43,3,268.49,2.79l.59.22c-.07.17-6.44,17.5-7.32,53.06s-.45,64.65-.45,64.94Z"/><path class="cls-7" d="M289.62,121.46c0-1.15-8.78-2.08-19.61-2.08s-19.61.93-19.61,2.08v2.89c0,1.15,8.78,2.08,19.61,2.08s19.61-.93,19.61-2.08Z"/><path class="cls-4" d="M262.22,123.38c-5.71.2-9.62.59-9.62,1.05s3.91.85,9.62,1Z"/><path class="cls-4" d="M283.36,123.61v1.63c3.06-.21,4.95-.5,4.95-.81S286.42,123.82,283.36,123.61Z"/><path class="cls-4" d="M280.8,58.18c0,9.39-1,21-8.68,21S253,67.57,253,58.18s6.23-17,13.91-17S280.8,48.78,280.8,58.18Z"/><ellipse class="cls-7" cx="264.26" cy="58.05" rx="13.05" ry="15.36"/><path class="cls-7" d="M225.43,119.9l-.57-.25A6.35,6.35,0,0,1,227.3,117a18.13,18.13,0,0,1,3-1.46l.14-.06a46.89,46.89,0,0,0,8.28-4.12,18.22,18.22,0,0,0,6.24-6.58l.56.29a18.89,18.89,0,0,1-6.45,6.81,47.21,47.21,0,0,1-8.4,4.18l-.13.06a16.65,16.65,0,0,0-3,1.41A5.73,5.73,0,0,0,225.43,119.9Z"/><path class="cls-7" d="M315,124.21l-.6-.17c.51-1.75.88-3.32.33-4.74a5.05,5.05,0,0,0-2.15-2.36,16.39,16.39,0,0,0-2.62-1.21l-.47-.18A32.2,32.2,0,0,1,297.78,108a19,19,0,0,1-5.39-12.72H293a18.38,18.38,0,0,0,5.22,12.29,31.36,31.36,0,0,0,11.48,7.4l.47.19a17.12,17.12,0,0,1,2.72,1.26,5.57,5.57,0,0,1,2.4,2.66C316,120.8,315.42,122.77,315,124.21Z"/><path class="cls-4" d="M288.43,83.19c1.19-30.54-2.7-52-14.05-75C285.13,33,287.92,60.58,286.43,87.5c.91-.06,1.34-.78,1.67-1.63A8.29,8.29,0,0,0,288.43,83.19Z"/><polygon class="cls-4" points="291.75 333.46 290.01 333.46 276.44 191.16 278.18 191.16 291.75 333.46"/><polygon class="cls-4" points="332.32 333.46 330.58 333.46 317.01 191.16 318.75 191.16 332.32 333.46"/><polygon class="cls-4" points="303.76 333.46 305.5 333.46 319.07 191.16 317.33 191.16 303.76 333.46"/><polygon class="cls-4" points="263.19 333.46 264.93 333.46 278.49 191.16 276.75 191.16 263.19 333.46"/><polygon class="cls-4" points="330.69 278.63 277.85 278.63 269.74 193.63 322.59 193.63 330.69 278.63"/><polygon class="cls-5" points="332.48 278.63 279.63 278.63 271.53 193.63 324.38 193.63 332.48 278.63"/><polygon class="cls-7" points="328.05 199.01 327.52 193.47 271.53 193.47 272.06 199.01 328.05 199.01"/><polygon class="cls-11" points="327.67 195.05 327.52 193.47 271.53 193.47 271.68 195.05 327.67 195.05"/><rect class="cls-7" x="287.07" y="214.96" width="26.45" height="0.63" transform="matrix(0.78, -0.62, 0.62, 0.78, -68.67, 234.8)"/><rect class="cls-7" x="298.99" y="220.15" width="6.57" height="0.63" transform="translate(-68.45 270.8) rotate(-43.84)"/><path class="cls-14" d="M343.79,326.22c-.9-.47-3.69,2.45-4.58,2-1-5.75-2.55-9.51-4.38-15.53,2.58-.65,4.69.54,7.35-.21A83.64,83.64,0,0,0,343.79,326.22Z"/><path class="cls-7" d="M341.92,317.43a85.93,85.93,0,0,0,1.27,8.65c-.89-.47-3.68,2.44-4.58,2a73.39,73.39,0,0,0-2.47-9.53A10.8,10.8,0,0,0,341.92,317.43Z"/><path class="cls-13" d="M327.62,294.22c1.26,3.8,7.56,24.06,8.82,27.86,4.12,2.75,7.1-.52,9.66-2-1.07-4.06-7.14-29.26-9.76-32.6h0a21.34,21.34,0,0,1-2.12-5.6c-1.7-7.93.81-15.92,3.56-23.43,1.62-4.43,3.35-8.87,3.86-13.55a19.89,19.89,0,0,0-1.72-11H318.09c-1.69,9,.65,31.81,5.33,47.29C324.75,285.53,326.18,289.87,327.62,294.22Z"/><path class="cls-4" d="M341.63,244.92c0-.22,0-.43.06-.65-6.38,1.75-14,1.6-15.49,6.87-2,5.79-3.9,11.59-5.83,17.35a128.79,128.79,0,0,0,3.05,12.67c1.33,4.37,2.76,8.71,4.2,13.06,1.26,3.8,7.56,24.06,8.82,27.86a6.12,6.12,0,0,0,1.23.65c.64-9.88.44-19.94,1-29.69a23.83,23.83,0,0,0-2.35-5.55h0a21.34,21.34,0,0,1-2.12-5.6c-1.7-7.93.81-15.92,3.56-23.43C339.39,254,341.12,249.6,341.63,244.92Z"/><path class="cls-4" d="M345.12,321.49a2.26,2.26,0,0,0,1.15-1.21c.27-1-.69-1.91-.62-2.91a11.26,11.26,0,0,1-9.79,3.2l.5,2.41A12.54,12.54,0,0,0,345.12,321.49Z"/><path class="cls-4" d="M333.51,336.23c-.54-.74.05-2.81.64-3.5,2-2.33,3.38-3.88,3.22-6.79,0-.89-.44-1.46.52-1.78.53-.18,1.47-.59,2-.34a4.93,4.93,0,0,0,1.54.64,1.42,1.42,0,0,0,1.37-1c.77.52.76,1.82,1.6,4.29.36,1.09-1,2-1.55,3-.85,1.53-.49,2.7-1.74,4a8.22,8.22,0,0,1-5.76,2.16C334.48,336.88,334,336.85,333.51,336.23Z"/><path class="cls-14" d="M331.46,324.3c-1.41,4.41-3.33,8.82-3.25,13.42l-6.06-.31a106.93,106.93,0,0,0,2.15-13.09A42.81,42.81,0,0,0,331.46,324.3Z"/><path class="cls-7" d="M330.12,327.4a25.46,25.46,0,0,0-1.51,8.23l-6.07-.3c.64-2.78,1.15-5.58,1.56-8.4A10.16,10.16,0,0,0,330.12,327.4Z"/><path class="cls-13" d="M323.63,303c.07,4.56-.93,23.19-1.45,27.56l11.37,2.09c0-1.35,3.5-30.37,2.94-35.63-.69-4,0-7.07.45-11.05.57-4.73,1.79-8.44,2.93-13.09,2.48-10.15,4.52-17.36,6-22.78,2.22-8.05,2.76-8.53.82-16.67l-.78-.37H323.66c-.35,12,.42,23.81,0,35.54-.15,3.76-1.18,8.85-1.13,12.63s-.55,6.07.22,9.89C323.43,294.61,323.27,299.37,323.63,303Z"/><path class="cls-7" d="M323.75,280.44l-.41,0a200.94,200.94,0,0,1,5.9-39.17l.4.1A201,201,0,0,0,323.75,280.44Z"/><path class="cls-4" d="M321.77,331a66.24,66.24,0,0,1,11.93,2c.09-1.33.18-2.65.28-4a96.88,96.88,0,0,1-11.39-1.32C322.32,328.82,322,329.91,321.77,331Z"/><path class="cls-4" d="M322.62,238.16a6.42,6.42,0,0,0-3.77.66c-1.07.72-1.52,2.46-.52,3.32,9.6-.35,19.43-.67,28.66,2.25l.18-5.49Z"/><path class="cls-4" d="M324.59,332a2.59,2.59,0,0,0-2.39,1.21c-1.47,1.67-1.21,3.47-2.63,5.58s-3.19,3.28-2.69,5.47a10.8,10.8,0,0,0,9.84-1.61c1.27-.88,1-2.15,2.08-3.22,1.26-1.28.76-3.32,1-5.29a1.07,1.07,0,0,0-.76-1.26c-.63-.21.66,2.7-1.6,1C326.64,333.21,325.32,332,324.59,332Z"/><path class="cls-14" d="M306.06,175.23a15.73,15.73,0,0,0-1.4-4.27,86.2,86.2,0,0,1-4.85-11,5,5,0,0,0,.74-.72c.9-1,.51-2.75,1.28-3.88.15-.23.36-.45.34-.72a.61.61,0,0,0-.4-.49,1,1,0,0,0-.65,0,1.55,1.55,0,0,0-1,1,5.27,5.27,0,0,1-.14.57.53.53,0,0,1-.44.35.63.63,0,0,1-.39-.19,6.86,6.86,0,0,1-1.25-2.21c-.93-2.62-2.71-5.68-3.82-8.14-.3-.11-.62.16-.72.49a2.08,2.08,0,0,0,0,1c.16.77,1,2.18,1.2,2.95a2.34,2.34,0,0,1,.07.83.73.73,0,0,1-.47.61c-.32.07-.61-.19-.84-.44l-4-4.3c-.3-.32-.81-.64-1.08-.29s.06,1.27.36,1.56a16.87,16.87,0,0,1,3.49,4.94c-1.56-.56-3.14-1.51-4.7-2.07-.22.28-.38.83-.12,1.08a7.86,7.86,0,0,0,1.45,1c1.11.48,2.55,1.41,2.78,2.7a2.24,2.24,0,0,0-.31.43c-.77-.28-1.7-.82-2.41-1a1.69,1.69,0,0,0-.86-.06.66.66,0,0,0-.5.66c0,.38.85.68,1.19.8,2.39.83,2.38,2.55,3.82,4.13a4.25,4.25,0,0,0,1.74,1.4c1.25,4.67,2.72,9.93,3.75,14.5.44,1.91,1.25,4.12,3.29,4.78a3.89,3.89,0,0,0,4.23-1.57A5.74,5.74,0,0,0,306.06,175.23Z"/><path class="cls-15" d="M295.15,159.47c.22.37.4.81.79,1a1.24,1.24,0,0,0,1.37-.55,3.59,3.59,0,0,0,.48-3,10.44,10.44,0,0,0-1.26-2.81c-.21-.37-.54-.79-.94-.69s-.49.57-.59.94a3.55,3.55,0,0,1-1.82,2.16c-.35.17-.8.36-.83.75a.71.71,0,0,0,.4.62,3.79,3.79,0,0,0,.74.25A3.1,3.1,0,0,1,295.15,159.47Z"/><path class="cls-15" d="M301.72,166.21c-2,.29-3.89.65-5.82,1.1l.56,2.77c2-.69,4.07-1.27,6.14-1.76Z"/><path class="cls-16" d="M324.53,189.65c-11.13-2.34-16.28-12.81-21.35-22.74-1.81.72-5.59,1.28-7.4,2a50.17,50.17,0,0,0,7.54,21.1c4.18,6.24,10.83,11.16,18.25,11.9Q323.06,195.77,324.53,189.65Z"/><path class="cls-17" d="M297.45,168.4a13.56,13.56,0,0,0-1.67.51,50.17,50.17,0,0,0,7.54,21.1c4.18,6.24,10.83,11.16,18.25,11.9.3-1.23.6-2.47.89-3.7C309.38,194.62,296.07,182.73,297.45,168.4Z"/><path class="cls-16" d="M351.29,196.38c1.4,2.75.81,6-.41,8.75s-3,5.3-4.15,8.11c-3.39,8.52,1.16,17.81,2,27.73-10.38-.71-21.53-1.37-31.91-1.15.75-5.42-.29-5.52.06-11,.58-8.87.93-26,3.41-37.52,4.83-2.63,9.24-2.53,14.91-2.48a25.05,25.05,0,0,1,9,2C347.23,192.15,349.88,193.59,351.29,196.38Z"/><path class="cls-17" d="M350.88,205.13c1.22-2.77,1.81-6,.41-8.75a7.93,7.93,0,0,0-1.06-1.58c-10.73,13.14-8.58,29.69-8.05,45.74l6.52.43c-.81-9.92-5.36-19.21-2-27.73C347.85,210.43,349.66,207.9,350.88,205.13Z"/><path class="cls-4" d="M348,239.45a189.38,189.38,0,0,0-31-.32l0-.42a190.24,190.24,0,0,1,31,.32Z"/><path class="cls-4" d="M333.69,198h0c-.5,0-1,0-1.58,0-2.21-.1-4.69-.43-6.37-2.09a4.07,4.07,0,0,1-1.19-4,4,4,0,0,1,2.23-2.32,9,9,0,0,1,3.09-.64,23.78,23.78,0,0,1,11.3,1.63c1.4.61,2.17,1.36,2.36,2.3.32,1.63-1.32,2.87-1.83,3.2C339.67,197.33,337.13,198,333.69,198Zm-1.52-8.78c-.74,0-1.5,0-2.27.08a9.14,9.14,0,0,0-2.95.61,3.58,3.58,0,0,0-2,2.07,3.72,3.72,0,0,0,1.09,3.59c1.57,1.56,4,1.87,6.09,2,.56,0,1.07,0,1.56,0,3.35,0,5.83-.6,7.78-1.9.45-.31,1.92-1.4,1.65-2.78-.16-.79-.85-1.45-2.12-2A22.07,22.07,0,0,0,332.17,189.18Z"/><path class="cls-14" d="M342,191.64a2.11,2.11,0,0,0-1.29-1.2,11.43,11.43,0,0,0-2.93-.78c-.13-.65-.22-1.32-.29-2a64.77,64.77,0,0,1-.36-6.82h-6.72a40.26,40.26,0,0,1-1.39,8.8l-.67.08a3,3,0,0,0-2.21,1.12,2.35,2.35,0,0,0,0,2,5.6,5.6,0,0,0,2.44,2.82,8.59,8.59,0,0,0,3.59,1.1,11.51,11.51,0,0,0,9-3.21A2.07,2.07,0,0,0,342,191.64Z"/><path class="cls-15" d="M342,191.64a2.11,2.11,0,0,0-1.29-1.2,11.43,11.43,0,0,0-2.93-.78c-.13-.65-.22-1.32-.29-2a64.77,64.77,0,0,1-.36-6.82h-6.52a17,17,0,0,0,5.2,15.61,11.31,11.31,0,0,0,5.38-2.94A2.07,2.07,0,0,0,342,191.64Z"/><path class="cls-4" d="M337.66,188.86c-.05-.39-.11-.79-.15-1.19a64.77,64.77,0,0,1-.36-6.82h-6.72a37.78,37.78,0,0,1-.57,5.08A10.31,10.31,0,0,0,337.66,188.86Z"/><path class="cls-16" d="M357.59,223a120,120,0,0,1-3.48-12.61c-.31-2.31-.54-4.63-.65-6.95a15.59,15.59,0,0,0-1-5.75,5.19,5.19,0,0,0-4.69-3.23,5,5,0,0,0-3.27,1.71c-2.37,2.58-2.53,6.44-1.77,9.84.57,2.56,2.69,7.95,2.68,8,.2.59,1.5,9,3.24,12.93a7.3,7.3,0,0,0,4.21,4c2,.81,4.38-1.49,5.17-3.38C358.66,226,358.11,224.42,357.59,223Z"/><rect class="cls-4" x="331.29" y="210.89" width="38.78" height="1.22"/><path class="cls-7" d="M370.27,210.41h-33.5a.92.92,0,0,1-.91-1l2-18.18a.92.92,0,0,1,.91-.82h33.5a.92.92,0,0,1,.91,1l-2,18.18A.91.91,0,0,1,370.27,210.41Z"/><path class="cls-11" d="M370.27,211.32h-33.5a.91.91,0,0,1-.91-1l2-18.19a.92.92,0,0,1,.91-.82h33.5a.92.92,0,0,1,.91,1l-2,18.19A.91.91,0,0,1,370.27,211.32Z"/><path class="cls-4" d="M349.54,202.44a25.48,25.48,0,0,0-5.92,8.88h16.87c-.08-3.95-1.37-10.32-6.46-6.14C352.52,206.42,351.91,200.76,349.54,202.44Z"/><path class="cls-14" d="M346.51,204.88c.51-.08.76.12.83.47s-.07.82,0,1.18a6.48,6.48,0,0,0,1.07,2.48,26.05,26.05,0,0,1-.29-3.57,14.47,14.47,0,0,1,.49-2.16.94.94,0,0,1,.85.67,2.87,2.87,0,0,1,.09,1.09,7.68,7.68,0,0,0,1,3.88,19.82,19.82,0,0,0-.32-2.48,30.72,30.72,0,0,1,0-3.75c.56-.29,1.09.13,1.25.73s.21,1.09.41,2a9.75,9.75,0,0,0,.72,2.4c.19.43.41.85.88,1a1.31,1.31,0,0,0,1.05-.05,3.45,3.45,0,0,0,.61-.88,15.48,15.48,0,0,0,1.88-3.27,3.24,3.24,0,0,1,.42-1,.69.69,0,0,1,.75-.19c.35.16.41.61.39,1-.13,2.27-1.47,3.92-1.95,5.05.77-.51.68-.95,1.15-1.68a2.43,2.43,0,0,1,.77-.56,1,1,0,0,1,.9.17c-.81,1-.57,2.53-1.34,3.56a4.45,4.45,0,0,1-1.16,1c-.42.28-.27.25-.69.53a1.18,1.18,0,0,0-.43.43c.77,4,2.72,7.79,2.61,11.52a8.39,8.39,0,0,1-.88,3.93,4.09,4.09,0,0,1-3.34,2.17c-2,0-3.66-1.79-4.12-3.69a15.69,15.69,0,0,1,.19-5.75,32.8,32.8,0,0,0,.17-6.57c-.24-1-.39-2-1-2.3-.33-.18-.47-.49-.8-.67a4.4,4.4,0,0,1-1-1,9.18,9.18,0,0,1-1.43-2.62C345.69,206.83,346.21,206.5,346.51,204.88Z"/><path class="cls-15" d="M355.78,212.91a24.34,24.34,0,0,1-6.41-.76l.05,0c.59.3.74,1.29,1,2.3.07,1,.1,2,.08,2.93,1.91-.76,3.91-1.41,5.9-2.06C356.15,214.55,355.94,213.73,355.78,212.91Z"/><path class="cls-15" d="M331.21,179.32c3.41-2,6.26-5.2,9.92-5.38l-.4-2.25c-1.2-3.44-7.86-3.49-10.9-.78a6,6,0,0,0-1.84,4.15C329.46,176.26,330.84,177.46,331.21,179.32Z"/><path class="cls-14" d="M341.43,175.64l-.3-1.7c-3.66.18-6.51,3.34-9.92,5.38-.37-1.86-1.75-3.06-3.22-4.26a19,19,0,0,0,1.31,7.66c1.36,3.67,9.35,5.22,10.4,4.26s1.93-7.5,1.93-7.5L340.9,177Z"/><path class="cls-15" d="M329.72,180.51c.07.24.43.36.38.6s-.19.21-.32.28-.25.24-.16.35a2.34,2.34,0,0,1,.07-2.84,3.81,3.81,0,0,1,.68,1.1.83.83,0,0,0-.46.11A.38.38,0,0,0,329.72,180.51Z"/><path class="cls-4" d="M343.55,168.38a4.56,4.56,0,0,0,1.89-1.18c-4,1.59-8.58.14-12.84.82a5.39,5.39,0,0,0-3.85,2.1,5.11,5.11,0,0,0-.66,2.64c-.07.06-.15.1-.21.16a4.48,4.48,0,0,0-1.14,3.65,10.53,10.53,0,0,0,2.79,6.55c0-.24,0-.48.07-.72a2.12,2.12,0,0,1-.58-.8,3.49,3.49,0,0,1-.19-1.61,2.2,2.2,0,0,1,.34-1.12,1,1,0,0,1,1-.49,1.13,1.13,0,0,1,.73.59c1.11-1.12,2.84-1.53,4-2.67a6.42,6.42,0,0,0,1.48-3,21.19,21.19,0,0,0,2.4.22,6.73,6.73,0,0,0,3.76-.88c1.74-1.1,2.56-3.19,3.26-5.13A3.53,3.53,0,0,1,343.55,168.38Z"/><path class="cls-13" d="M334.61,170.47a5.08,5.08,0,0,0-2.12-.29,2.27,2.27,0,0,1-1.32-.19,1.78,1.78,0,0,0-.38-.25c-.38-.13-.72.24-1,.57a2.89,2.89,0,0,0-.7,2.3A3.67,3.67,0,0,1,331,171c-.23.18-.05.59.24.65a1,1,0,0,0,.79-.27,1.67,1.67,0,0,1,.76-.41,2.08,2.08,0,0,1,.73.16,5.72,5.72,0,0,0,1.1.16l1.57.12a14.7,14.7,0,0,0,3.18,0,4.88,4.88,0,0,0,2.83-1.34,6,6,0,0,1-2.71.78c-.5,0-1-.18-1.49-.25a2,2,0,0,0-1.44.27c0-.2-.24-.31-.43-.3s-.38.1-.57.12A2.21,2.21,0,0,1,334.61,170.47Z"/><path class="cls-4" d="M458.3,334.89a3,3,0,1,1-3,3A3,3,0,0,1,458.3,334.89Z"/><path class="cls-4" d="M402.89,334.89a3,3,0,1,1-3,3A3,3,0,0,1,402.89,334.89Z"/><path class="cls-4" d="M435.17,335.64a10.44,10.44,0,0,1-5.33-2.46l-27.92,2.26v-.71a1.3,1.3,0,0,1,1.2-1.31c3.58-.29,14.1-1.16,18.15-1.64,4.91-.58,6.93-3.18,6.93-3.18h.63V311.83h.65V287.78h2.41v24.05h.64V328.6h.64s2,2.6,6.93,3.18c4,.48,14.57,1.35,18.14,1.64a1.3,1.3,0,0,1,1.21,1.31v.71l-25.22-2a13.73,13.73,0,0,0,1.45,1.09,4.58,4.58,0,0,1,1.14,1,2.16,2.16,0,0,1,.33.64h1.49v5.63h-5v-5.63h1.57C435.2,335.94,435.19,335.79,435.17,335.64Z"/><path class="cls-16" d="M443.68,288.34h-29.2a9.85,9.85,0,0,1-6.34-7.8c-.37-3.63,1.39-7.36,3.41-10.75s4.4-6.71,5.47-10.36c1.19-4,.82-8.49,3.63-11.94a10.45,10.45,0,0,1,11-3.13l3.17.15,6.7-.15c3.93-1.34,8.5,0,10.31,3.13,2,3.45,1.28,6.26.93,11.94-.23,3.7-.73,6.68-.37,10.36.42,4.31,1.1,7.27-.09,10.9S447.42,286.91,443.68,288.34Z"/><path class="cls-4" d="M442.31,285.31H416.18a9.14,9.14,0,0,1-5.67-7.27c-.32-3.38,1.25-6.85,3.06-10s3.93-6.26,4.89-9.66c1.06-3.76.73-7.91,3.24-11.13a9.1,9.1,0,0,1,9.86-2.91l2.83.14,6-.14c3.5-1.26,7.59,0,9.22,2.91,1.81,3.22,1.14,5.83.82,11.13-.2,3.45-.65,6.22-.33,9.66.38,4,1,6.77-.07,10.16C449,281.42,445.65,284,442.31,285.31Z"/><path class="cls-18" d="M419.31,230.44q3.44-3.49,6.66-7.17a3.2,3.2,0,0,1,1-.9,2.63,2.63,0,0,1,2.72.82,6.83,6.83,0,0,1,1.14,8.17,15.16,15.16,0,0,1-4,3.9c-.36.28-.71.57-1.06.86A12.75,12.75,0,0,0,419.31,230.44Z"/><path class="cls-14" d="M410.26,239.66a13.42,13.42,0,0,1,2.74-3.09c2.16-2,4.73-4.2,6.78-6.3,2.81,1,4.52,3.28,6,5.85a56.1,56.1,0,0,0-5.28,4.94,27.44,27.44,0,0,1-3.08,3,6.89,6.89,0,0,1-4,1.55,4,4,0,0,1-3.57-2A4.29,4.29,0,0,1,410.26,239.66Z"/><path class="cls-4" d="M419.25,230.81l.53-.54c2.81,1,4.52,3.28,6,5.85a56.1,56.1,0,0,0-5.28,4.94c-.73.77-1.44,1.57-2.23,2.29A13.13,13.13,0,0,0,419.25,230.81Z"/><path class="cls-14" d="M419.9,210a.78.78,0,0,0-.73-.26,2.09,2.09,0,0,0-1.8,1.43,7.44,7.44,0,0,1-.25.84c-1.34-.92-.88-1.39-1-2.07.69-.5,1.49-1.09,2.2-1.56,1.18-.77.83-1.39.73-2.2a26.73,26.73,0,0,1-5.61,2.8,2.75,2.75,0,0,0-.67.32.85.85,0,0,0-.32.5,1.68,1.68,0,0,1-.86.86.8.8,0,0,0-.47.75,2.46,2.46,0,0,1-.89,1.85,1.17,1.17,0,0,0-.4,1.11l1.11,6.14c.21,3.44-.58,6.88-1.26,10.26-.73,3.63-1.33,7.43-.4,11a5.22,5.22,0,0,0,2.34,3.51,3.65,3.65,0,0,0,4-.72,6.71,6.71,0,0,0,1.91-3.94,20.51,20.51,0,0,0,0-4.5c-.31-4.71-1.15-9.43-1.46-14.14l.12-1.63a3.31,3.31,0,0,0,1.27-1.86,8.15,8.15,0,0,0-.22-2.5,4.75,4.75,0,0,1,.54-1.72A7.33,7.33,0,0,0,419,212.7a10.35,10.35,0,0,1,.46-1.36c.13-.22.32-.4.44-.63A.7.7,0,0,0,419.9,210Z"/><path class="cls-15" d="M416.08,222l.12-1.63a4,4,0,0,0,1.14-1.44c-.88.78-1.93,1.85-3.36,1.85,1.67,8.35,1.57,16.18-2.61,23.7-.08.17-.17.34-.26.51a2.26,2.26,0,0,0,.49.31,3.65,3.65,0,0,0,4-.72,6.71,6.71,0,0,0,1.91-3.94,20.51,20.51,0,0,0,0-4.5C417.23,231.41,416.39,226.69,416.08,222Z"/><path class="cls-15" d="M412.51,217.41a3.24,3.24,0,0,0-1.12-2.22,3.64,3.64,0,0,0,1.65.33,1.46,1.46,0,0,0-.08.92.8.8,0,0,0,.67.59.56.56,0,0,0,.59-.58.88.88,0,0,0,.95.05.91.91,0,0,0,.45-.83,1.89,1.89,0,0,0,.82-2.09,5.09,5.09,0,0,1,.18,3.11,3.53,3.53,0,0,1-2,2.31,2,2,0,0,1-1.07.16,1.19,1.19,0,0,1-.87-.6A2.92,2.92,0,0,1,412.51,217.41Z"/><path class="cls-4" d="M394.58,271.13c9.29-4.88,20.15-6.48,29.18-11.8h8.72a7.66,7.66,0,0,1,4.08,4.57c1,3.17,1.8,4,.9,7.18a12.4,12.4,0,0,1-4,5.65c-1.66,1.22-6.89,2.25-8.94,2.24-4.42,0-15.95,2.91-22.95,4.9a8,8,0,0,1-7.85-1.94C390,278.27,390.3,275,394.58,271.13Z"/><path class="cls-14" d="M404.59,328.88a28.15,28.15,0,0,0,8.17-.4,63.3,63.3,0,0,0-2.06,13.45l-7.62.4A60.29,60.29,0,0,0,404.59,328.88Z"/><path class="cls-7" d="M394.65,341.11c2.38-.85,5-1.22,7.17-2.44a9,9,0,0,0,1.94-1.45c2.5,1.06,4.05,2.11,6.15,2.88a16.19,16.19,0,0,0,1.83.89c-.16,1.61-.47,3.51-.74,5.11l-18.77,0-2.62-.17C389.91,343.62,392.27,342,394.65,341.11Z"/><rect class="cls-4" x="389.39" y="345.53" width="21.96" height="1.31"/><path class="cls-13" d="M402.36,293a20.87,20.87,0,0,1,3.81-6.36c3.69-4.61,7.91-8.78,11.48-13.48,3.15-4.13,5.82-8.79,6.87-13.84H443.8a25.29,25.29,0,0,1-4.33,20c-6.25,8.44-15.84,11.05-24.45,17.06,3.66,12.81.91,22.61-1.45,32.6a33,33,0,0,1-9.59.48c.09-8.75-1-17.6-2-26.33C401.64,299.76,401.29,296.25,402.36,293Z"/><path class="cls-7" d="M411.24,329.22l-.42-.05,3.46-30.07a10.51,10.51,0,0,1,.59-2.81c.77-1.85,2.48-3.05,4.31-4.22l1.34-.85c5-3.16,10.08-6.43,14.16-10.74,5-5.25,7.58-11.55,7.16-17.29l.42,0c.43,5.87-2.23,12.29-7.28,17.62-4.11,4.35-9.26,7.63-14.24,10.8l-1.33.85c-1.78,1.13-3.43,2.29-4.15,4a9.85,9.85,0,0,0-.57,2.7Z"/><path class="cls-4" d="M402.36,293a20.87,20.87,0,0,1,3.81-6.36c1.81-2.26,3.75-4.42,5.67-6.58,3,2.72,7.47,3.35,9.88,7.56a10.17,10.17,0,0,1,1.41,3.92A82.27,82.27,0,0,0,415,296.4a46.28,46.28,0,0,1,1.47,7.3l-.41.17.41-.17c.15,1.28.24,2.52.28,3.74-3-6.56-7.75-12.52-14.68-13.43C402.17,293.67,402.25,293.34,402.36,293Z"/><path class="cls-14" d="M420.78,294.11a25.21,25.21,0,0,0,7.77,8.58c-1.42,1.8-3.49,4.74-4.92,6.54-3.21-3.72-6.33-7-9.52-10.08A18.87,18.87,0,0,1,420.78,294.11Z"/><path class="cls-13" d="M409.35,277.34a46.82,46.82,0,0,1,4.3,5.37c.66.94,7.24,11.35,7.13,11.4a18.87,18.87,0,0,0-6.67,5,153.59,153.59,0,0,0-19.95-16,6.61,6.61,0,0,1-2.44-2.4c-.63-1.35-1.68-3.13-1-5.72a6.23,6.23,0,0,1,3-3.46l.84-.44c1.14-.6,3.89,0,5.11.2a14,14,0,0,1,4.42,1.65A24.15,24.15,0,0,1,409.35,277.34Z"/><path class="cls-4" d="M433.68,307.83a33.16,33.16,0,0,1-9.82,13.36,2.09,2.09,0,0,1-1,.51c-.72.1-1.31-.51-1.78-1.06a51.73,51.73,0,0,0,11.52-15.79,1.26,1.26,0,0,1,1.4,1.07A3.39,3.39,0,0,1,433.68,307.83Z"/><path class="cls-7" d="M426.07,301.41a9.77,9.77,0,0,0-3.44,1.54c-1.43.88-3,2.07-3,3.75a10.5,10.5,0,0,0,.94,2.8,7.82,7.82,0,0,1-.09,4.07,14.88,14.88,0,0,0-.58,4.07,3.85,3.85,0,0,0,2,3.34,38.75,38.75,0,0,0,11.56-16.06C431.4,303,428.88,301,426.07,301.41Z"/><path class="cls-10" d="M432.38,219.83a11.27,11.27,0,0,0-7.72,6.3c-1.27,3.29-3.21,5.78-3.79,11.26a13.17,13.17,0,0,0,1.21,6.67c1.76,4-.85,13.54-3.2,17.79,7.72.11,18.31.68,26,.79,1.6-11.46,8.94-25.26,8.21-37.13a3.94,3.94,0,0,0-2.43-3.43C444.8,219.83,438.14,218.83,432.38,219.83Z"/><path class="cls-18" d="M452.41,223.43c-6.82-2-13.74,3.36-16,9.33-1.67,5.85.84,13.37-3.34,17.54-3.81,4.86-8.5,8.27-13.2,11.57,7.61.14,17.63.67,25,.77,1.6-11.46,8.71-25.25,8.21-37.13A3.9,3.9,0,0,0,452.41,223.43Z"/><path class="cls-4" d="M438.2,237.88a10.31,10.31,0,0,0,1.25,5.74,5.54,5.54,0,0,1,.57,5.15c-.83,2.31-3.47,3.32-5.78,4.15a89.43,89.43,0,0,0-10.63,4.63,3.5,3.5,0,0,0-1.21.87,1.23,1.23,0,0,0-.15,1.4c.42.62,1.36.49,2.08.28l14.9-4.22a6.73,6.73,0,0,0,5.94-5.49c2-5.87,4-11.77,4.92-17.89a8.4,8.4,0,0,0-.11-4.17,3.23,3.23,0,0,0-3.17-2.28S438.36,234.23,438.2,237.88Z"/><rect class="cls-3" x="388.54" y="253.33" width="0.24"/><path class="cls-10" d="M442.24,231.91c.3-1.38.62-2.76,1-4.19.55-2,2.07-4.7,4.14-5.55a5.19,5.19,0,0,1,5.15.94,7.71,7.71,0,0,1,2.11,5.1,13.71,13.71,0,0,1-1,4.81c-.31.84-.64,1.66-1,2.48A15.55,15.55,0,0,0,442.24,231.91Z"/><path class="cls-14" d="M413.49,253.92a3.36,3.36,0,0,1,1.72-.79,4.13,4.13,0,0,1,1.8.45,18.63,18.63,0,0,0,2.34.72c5.74-2.63,10.79-5.47,16.57-8.08a9.9,9.9,0,0,0,2.93-1.76c1-1,1.11-2.83,1.49-4.18.81-2.87,1.3-5.6,1.9-8.37a15.55,15.55,0,0,1,10.39,3.59A103.55,103.55,0,0,1,447,246.34a17.18,17.18,0,0,1-3.88,5.06,18.11,18.11,0,0,1-5.21,2.63,104.78,104.78,0,0,1-16.67,4.59,6,6,0,0,1-1,.49,11.74,11.74,0,0,1-2.82.55c-.77.09-1.72.09-2.1-.56l-3.61.06-2.79,0A16.49,16.49,0,0,1,413.49,253.92Z"/><path class="cls-15" d="M451.55,234.68c-5.35,16.86-23.52,20.8-40.18,24a6,6,0,0,0-1.51.53l1.83,0,3.61-.06c.38.65,1.33.65,2.1.56a11.74,11.74,0,0,0,2.82-.55,6,6,0,0,0,1-.49A104.78,104.78,0,0,0,437.87,254a18.11,18.11,0,0,0,5.21-2.63,17.18,17.18,0,0,0,3.88-5.06,103.55,103.55,0,0,0,5.67-10.84C452.28,235.21,451.92,234.93,451.55,234.68Z"/><path class="cls-14" d="M430.63,199.67s.06,0,0,0Z"/><path class="cls-14" d="M428.18,222.22a6.18,6.18,0,0,1,2.54-1.32c.57-.18.95-.58,1.54-.72a26.24,26.24,0,0,0,2-9.62l5-.23.94.76a32.11,32.11,0,0,0,.83,8.79,15,15,0,0,1,3.57,1.15c-.15,1-1.08,1.57-1.94,2-3.93,2.08-8.42,3.56-12.8,2.78a3.07,3.07,0,0,1-2.32-1.31A2,2,0,0,1,428.18,222.22Z"/><path class="cls-15" d="M428.91,223.58c-.6,0,.09-1.29.83-2.32a4.6,4.6,0,0,0-1.56,1,2,2,0,0,0-.68,2.31,3.07,3.07,0,0,0,2.32,1.31,17.14,17.14,0,0,0,8.69-1A13.75,13.75,0,0,1,428.91,223.58Z"/><path class="cls-15" d="M432.25,222.74a12.07,12.07,0,0,0,8.59-3.64,31.72,31.72,0,0,1-.68-8l-.94-.76-5,.23a26.24,26.24,0,0,1-2,9.62,3.44,3.44,0,0,0-.85.38C431.42,221.44,431.51,222.74,432.25,222.74Z"/><path class="cls-4" d="M439.22,210.33l.94.76a33.28,33.28,0,0,0,0,3.46,16.19,16.19,0,0,1-8.2,6.2,26.16,26.16,0,0,0,2.26-10.19Z"/><path class="cls-4" d="M440.72,194.86a3.76,3.76,0,0,0-.35.34c-.28.24-.69.24-1,.41a1.4,1.4,0,0,0-.68,1,4.44,4.44,0,0,0,0,1.26,16.69,16.69,0,0,1,3.5,3.27c1.12,1.28,2.29,2.66,2.49,4.34a7.53,7.53,0,0,0,2.2-5.93,6.22,6.22,0,0,0-3.63-5.06,1.49,1.49,0,0,0-.9-.15.63.63,0,0,0-.53.64C441.47,194.82,441,194.64,440.72,194.86Z"/><path class="cls-4" d="M428.36,200.22c1.2-2.2,4.12-3.45,6.59-3.89a8.87,8.87,0,0,1,8.36,3.25,9.43,9.43,0,0,1,1.32,8.93,10.06,10.06,0,0,1-6.75,6.06c-1.92.52-4.25.35-5.53-1.18-1.53-1.81-1.05-4.83-2.8-6.42-.64-.58-1.55-.95-1.82-1.77a3.82,3.82,0,0,1-.4-2A17.34,17.34,0,0,1,428.36,200.22Z"/><path class="cls-14" d="M428.44,208.15c0,1.13-.08.58-.27,1.68a4.94,4.94,0,0,0,.41,2.51,24.07,24.07,0,0,0,2.45,4.45,3.08,3.08,0,0,0,1.58,1.32,4.36,4.36,0,0,0,2.43-.36,12.64,12.64,0,0,0,7.22-10.16,7.4,7.4,0,0,0-.94-4.85,8.08,8.08,0,0,0-4.57-2.94,10.58,10.58,0,0,0-4-.51,5.52,5.52,0,0,0-3.59,1.71c-.9,1-1.83,4-1.33,5.31A6.65,6.65,0,0,1,428.44,208.15Z"/><path class="cls-15" d="M441.32,202.74a8.08,8.08,0,0,0-4.57-2.94,10.58,10.58,0,0,0-4-.51,5.52,5.52,0,0,0-3.59,1.71,4.5,4.5,0,0,0-.61,1c1.88,3.37,5.52,4.27,7.06,6.57,1.66,3.32,1.1,7.37-1.4,9.49a4.42,4.42,0,0,0,.85-.29,12.64,12.64,0,0,0,7.22-10.16A7.4,7.4,0,0,0,441.32,202.74Z"/><path class="cls-11" d="M440.23,197.27a10,10,0,0,1,5.07,7.11,7,7,0,0,0-.33-3.54c-.48-1.19-1.45-1.36-2.08-2.14C441.93,197.51,440.89,197.72,440.23,197.27Z"/><path class="cls-4" d="M443.61,204.72a4.86,4.86,0,0,0-1-1.15,7.23,7.23,0,0,0-.88-2.51,8.18,8.18,0,0,0-5.8-3.63,8.09,8.09,0,0,0-6.49,2.41,1.62,1.62,0,0,0-.62,1.12,1.56,1.56,0,0,0,.44.93,11.18,11.18,0,0,0,1.69,1.68,3.71,3.71,0,0,0,1,1.33,37.31,37.31,0,0,0,3.49,2.48,6.89,6.89,0,0,1,2.7,3.23,2.06,2.06,0,0,1-.4,2.23,9,9,0,0,0-.79.52,1.37,1.37,0,0,0-.16,1.55,4,4,0,0,0,1.09,1.24c-.49-.49-1-1.11-.88-1.8s.81-1,1.3-1.47a3,3,0,0,0,.89-1.91,10.34,10.34,0,0,1,.78,3.58c1.59-.72,1.86-2.19,2.82-3.65a8.2,8.2,0,0,0,1.47-3.24A4.53,4.53,0,0,0,443.61,204.72Zm-7.42,1.64c.32.11.64.2,1,.29.36.57.71,1.13,1,1.72A17,17,0,0,1,436.19,206.36Z"/><path class="cls-13" d="M433.49,201.54a6.31,6.31,0,0,0,4.6,3.61l-1.4-1.28a3.15,3.15,0,0,0,2.1.39l-.38-.46a3,3,0,0,1,3.06,1,2.41,2.41,0,0,0-.88-2.25,1.46,1.46,0,0,1,1,.17l0-.53.91.24c-.24-.4-.47-.8-.7-1.2a3.22,3.22,0,0,1,1.46.36,5.57,5.57,0,0,0-2.35-2.72,1.21,1.21,0,0,1,.09,1.27,3.55,3.55,0,0,1-.87,1c-.25.24-.6.49-.92.35-.14-.06-.25-.2-.4-.22s-.46.22-.57.46-.26.53-.53.53-.38-.19-.55-.33-.47-.2-.57,0a1,1,0,0,0-.05.23c-.06.26-.39.36-.65.31s-.49-.22-.75-.3a.63.63,0,0,0-.72.16Z"/><polygon class="cls-4" points="476.21 351.73 478.15 351.73 468.57 261.64 466.63 261.64 476.21 351.73"/><polygon class="cls-4" points="470.26 348.58 472.13 348.58 462.89 261.64 461.02 261.64 470.26 348.58"/><polygon class="cls-4" points="364.15 351.73 362.22 351.73 371.79 261.64 373.73 261.64 364.15 351.73"/><polygon class="cls-4" points="370.1 348.58 368.23 348.58 377.47 261.64 379.34 261.64 370.1 348.58"/><rect class="cls-4" x="456.43" y="255.53" width="0.8" height="32.69" transform="translate(-34.61 474.6) rotate(-53.17)"/><rect class="cls-4" x="367.11" y="271.47" width="32.69" height="0.8" transform="translate(-86.43 284.45) rotate(-36.87)"/><rect class="cls-9" x="349.48" y="259.72" width="140.83" height="3.76"/><path class="cls-7" d="M383.49,258.15h32.33a1,1,0,0,0,1-1.15l-2.92-18.37a1,1,0,0,0-1-.83H380.56a1,1,0,0,0-1,1.14l2.92,18.37A1,1,0,0,0,383.49,258.15Z"/><path class="cls-11" d="M383.49,259h32.33a1,1,0,0,0,1-1.15l-2.92-18.37a1,1,0,0,0-1-.83H380.56a1,1,0,0,0-1,1.14l2.92,18.37A1,1,0,0,0,383.49,259Z"/><rect class="cls-11" x="383.42" y="259.07" width="42.83" height="0.88"/><path class="cls-7" d="M452.92,234.58a19.78,19.78,0,0,0-10.65-3.25v-.41a20.06,20.06,0,0,1,10.88,3.32Z"/><path class="cls-7" d="M431.33,227.23a5.81,5.81,0,0,1-3.39-.91,3.45,3.45,0,0,1-1.35-2.36,2.38,2.38,0,0,1,.58-1.89.21.21,0,0,1,.29,0,.22.22,0,0,1,0,.3,2,2,0,0,0-.47,1.56,3,3,0,0,0,1.18,2.07,6,6,0,0,0,4.21.78,33.29,33.29,0,0,0,11.15-3.48,4.43,4.43,0,0,0,1.53-1,1.41,1.41,0,0,0,.23-1.56.21.21,0,0,1,.35-.23,1.81,1.81,0,0,1-.26,2.06,4.65,4.65,0,0,1-1.67,1.13,33.6,33.6,0,0,1-11.29,3.53C432.1,227.21,431.73,227.23,431.33,227.23Z"/><path class="cls-7" d="M419.23,294.12a64.1,64.1,0,0,0-22.82-22.92l.21-.36a64.45,64.45,0,0,1,23,23.07Z"/><path class="cls-7" d="M172.17,99.63l13.61,8a34.58,34.58,0,0,1,3.51-4.31L178,92.33A51.15,51.15,0,0,0,172.17,99.63Z"/><path class="cls-7" d="M213.34,76.82A50.14,50.14,0,0,0,181,89.42l10.25,12a34.45,34.45,0,0,1,22.06-8.79Z"/><path class="cls-3" d="M260.15,78.28a68,68,0,1,0,11.52,95.46A68,68,0,0,0,260.15,78.28Zm-78.7,100.3A59.5,59.5,0,0,1,171.37,95C191.65,69.19,228.71,65.12,254.91,85c25.47,19.28,30.33,57.58,10.08,83.54A59.44,59.44,0,0,1,181.45,178.58Z"/><path class="cls-4" d="M258.2,78.28a68,68,0,1,0,11.52,95.46A68,68,0,0,0,258.2,78.28ZM178.76,179.53A60.71,60.71,0,0,1,168.47,94.3C189.17,67.92,227,63.77,253.7,84c26,19.68,30.94,58.75,10.29,85.23A60.64,60.64,0,0,1,178.76,179.53Z"/><rect class="cls-4" x="151.36" y="191.05" width="33.22" height="4.45" transform="translate(-87.77 206.12) rotate(-51.88)"/><rect class="cls-16" x="95.5" y="231.74" width="78.3" height="8.01" transform="translate(-133.93 196.16) rotate(-51.88)"/><rect class="cls-7" x="96.79" y="233.29" width="73.76" height="0.63" transform="translate(-132.66 194.77) rotate(-51.93)"/><path class="cls-4" d="M143.51,218.33c-1.09,2.11-.44,4.73-1.19,7-.65,2-2.28,3.42-3.31,5.21-.68,1.19-1.13,2.56-2.17,3.44a6.43,6.43,0,0,1-3.54,1.15,11.17,11.17,0,0,0-3.7.67Z"/><path class="cls-12" d="M142.63,220.9a1.49,1.49,0,0,0-.77.34,10.38,10.38,0,0,0-1,.83,6.52,6.52,0,0,1,.5-1.19,4.27,4.27,0,0,0-3.38,1.59c-.89.94-1.55,2.08-2.47,3a4,4,0,0,1-3.46,1.35l-.21,3.66a3.32,3.32,0,0,1,2.33-.17,10.6,10.6,0,0,0,2.35.45,2.11,2.11,0,0,0,2-1.09,4.93,4.93,0,0,0,.22-1.08,6,6,0,0,0,.7-.39,4.44,4.44,0,0,0,1.63-1.7,9.67,9.67,0,0,0,.63-2.33,3.71,3.71,0,0,1,1.07-2.14c.22-.18.5-.38.49-.66A.54.54,0,0,0,142.63,220.9Z"/><path class="cls-13" d="M97.08,193.6a4.52,4.52,0,0,0-2.87,2.62,11.08,11.08,0,0,0-.78,3.92,33,33,0,0,0,3.22,16.41,26.78,26.78,0,0,0,11.55,12c7.5,3.84,17.23,3.65,25.64,4.2.59-2,0-5.1.55-7.11-7-.28-14.25-1.43-19.9-5.57s-8.22-10.47-9.57-17.35a25.6,25.6,0,0,0-1.89-6.45A5.77,5.77,0,0,0,97.08,193.6Z"/><path class="cls-4" d="M114.49,220c-5.66-4.13-8.22-10.47-9.57-17.35a25.6,25.6,0,0,0-1.89-6.45,5.77,5.77,0,0,0-6-2.63,4.52,4.52,0,0,0-2.87,2.62,11.08,11.08,0,0,0-.78,3.92,33,33,0,0,0,3.22,16.41,26.78,26.78,0,0,0,11.55,12,28.41,28.41,0,0,0,5.26,2,30.83,30.83,0,0,0,1.77-10C115,220.38,114.73,220.21,114.49,220Z"/><path class="cls-12" d="M107.86,194.82c-2.64-2.89-3.71-7.57-4.13-11.46l-6.6-.72a70.27,70.27,0,0,1,.32,16.46C101.13,197.36,104.18,196.56,107.86,194.82Z"/><path class="cls-4" d="M104.84,189a32.16,32.16,0,0,1-1.11-5.68l-6.6-.72c.11.76.2,1.52.28,2.29A10,10,0,0,0,104.84,189Z"/><path class="cls-12" d="M91,176.76a8.09,8.09,0,0,1,.29-4.09,6.07,6.07,0,0,1,2.58-2.86,10.51,10.51,0,0,1,3.7-1.24c1.64-.26,3.58-.61,4.9.4,1.72,1.31,2.49,1.64,2.8,3.5a4.69,4.69,0,0,0,.43,1.15,1.93,1.93,0,0,0,.68.71c.73.45,1,1.18,1.35,2.56a16.32,16.32,0,0,1,.41,2.16,4.58,4.58,0,0,0,.37,1.38,2,2,0,0,1,.11,1.5,2.36,2.36,0,0,1-1.12,1.06,13.37,13.37,0,0,1-10.27.89,8.75,8.75,0,0,1-5.15-3.54A9.31,9.31,0,0,1,91,176.76Z"/><path class="cls-16" d="M104.61,170.75A11.07,11.07,0,0,0,102.5,169c-1.32-1-3.26-.66-4.9-.4a10.51,10.51,0,0,0-3.7,1.24,6.07,6.07,0,0,0-2.58,2.86,8.09,8.09,0,0,0-.29,4.09,9.31,9.31,0,0,0,1.08,3.58,8.75,8.75,0,0,0,5.15,3.54,14.21,14.21,0,0,0,7.06.3C102.72,179.84,102.33,175.3,104.61,170.75Z"/><path class="cls-4" d="M102.53,203.8c-1.18-3.74-3-7.68-1.76-11.4.72-2.22,2.48-4.1,2.69-6.43s-1.1-4.35-2.47-6.14c-.19-.25-.38-.49-.56-.74.26-.28.53-.57.77-.88a12.93,12.93,0,0,0,2.48-10.7c-.3-1.26.06-.79-1.56-3-4,1.67-6.74,2.64-10.77,4.32a12.35,12.35,0,0,0-2.63,1.36s-.59.36-.71.62a6.19,6.19,0,0,0-1.43,4.58A22.5,22.5,0,0,0,86.2,181c.22,3.85,1.44,7.63,1.2,11.47-.26,4.08-2.14,7.85-3.27,11.77a33,33,0,0,0-.53,16.29c.69,3.16,2,6.39,4.62,8.27,2.23,1.59,5.08,2,7.81,2.31,1.47.18,3.15.29,4.23-.72a4.78,4.78,0,0,0,1-1.67A36.33,36.33,0,0,0,102.53,203.8Z"/><path class="cls-13" d="M98,169.2a8.19,8.19,0,0,0,3.67-2.42,6.82,6.82,0,0,1,.1,5.14,7.71,7.71,0,0,0-.74-2.62,4.91,4.91,0,0,1-.47,2c-.14-.43-.29-.86-.43-1.28a2.4,2.4,0,0,0-1,1.14,1,1,0,0,0-1.26-.28,2.92,2.92,0,0,0-1,.95c.18-.35-.26-.75-.64-.69a1.61,1.61,0,0,0-.92.65,1.69,1.69,0,0,1-.91.68c-.23,0-.46,0-.69,0-.71,0-1.22.65-1.64,1.22,0-.17-.15-.34-.34-.33a.92.92,0,0,0-.47.28l-2,1.8.6-2.88A2.48,2.48,0,0,0,92.34,171a2.51,2.51,0,0,0,2-.25Z"/><path class="cls-14" d="M132,342.18a18.34,18.34,0,0,1-6.13-2.06c-2.72-1.68-4-5-4.68-8.12-2.1.19-4.51.64-6.61.82,1.09,2.81,2.48,5.87,2.46,8.8C122,343.37,127.64,344.49,132,342.18Z"/><path class="cls-16" d="M136.85,343.26a3.34,3.34,0,0,0-1.32-.45c-1.12-.21-2.32-.4-3.53-.63-4.36,2.31-10,1.19-15-.56a9.34,9.34,0,0,1-.13,1.4,2.92,2.92,0,0,0,.93,2.71c.77.63,1.9.48,2.9.39,5.28-.5,11,1.39,15.75-.89a1.53,1.53,0,0,0,.86-.75A1.11,1.11,0,0,0,136.85,343.26Z"/><path class="cls-11" d="M111.62,241.55H90.28a21.9,21.9,0,0,0-1.45,4.84,36.1,36.1,0,0,0,1.22,16.41c1.65,5.63,7.71,11.37,13.16,28.61,1.29,4.06,1.71,8.75,3,14.23,2.66,11.47,7.62,21.41,8.25,33.34a29,29,0,0,1,10.3-1.82c-4.19-16.56-5.48-31.68-7.51-47.61-1.29-10.16-4-20.89-4.34-31.74C112.72,252.4,112.63,246.85,111.62,241.55Z"/><path class="cls-4" d="M112.89,257.81c-.17-5.41-.26-11-1.27-16.26H90.28a21.9,21.9,0,0,0-1.45,4.84,36.1,36.1,0,0,0,1.22,16.41c1.65,5.63,7.71,11.37,13.16,28.61,1.21,3.8,1.66,8.17,2.76,13.21.8-13.51,4.29-24.11,6.07-36.35A44.13,44.13,0,0,0,112.89,257.81Z"/><path class="cls-7" d="M117.39,337.39a396.88,396.88,0,0,0-9.78-44.85l.41-.11a400.28,400.28,0,0,1,9.79,44.89Z"/><path class="cls-13" d="M124.74,337.16c-4.19-16.56-5.48-31.68-7.51-47.61-1.29-10.16-4-20.89-4.34-31.74-.17-5.41-.26-11-1.27-16.26h-3.08c2.61,32.18,11.27,63.62,13.28,95.59A8.38,8.38,0,0,1,124.74,337.16Z"/><path class="cls-14" d="M87.92,348.4a12.52,12.52,0,0,1-2.73-6.9c-.29-3.41,1.66-6.59,2.75-9.83-2-.47-4.68-1.46-6.67-1.93a29.05,29.05,0,0,1-4.27,12,11.38,11.38,0,0,0,3.38,4.83A10.57,10.57,0,0,0,87.92,348.4Z"/><path class="cls-16" d="M89.94,350.21a9.19,9.19,0,0,1-2-1.81,10.57,10.57,0,0,1-7.54-1.83A11.38,11.38,0,0,1,77,341.74c-.17.28-.33.57-.51.84a4.06,4.06,0,0,0-1,2.9c.24,1.18,1.48,1.81,2.33,2.66,1,1,1.5,2.49,2.49,3.54a6.66,6.66,0,0,0,4.46,1.89,19.58,19.58,0,0,0,4.93-.51c.66-.12,1.44-.36,1.61-1S90.62,350.66,89.94,350.21Z"/><path class="cls-11" d="M93,238.76c.41,3.58-4,11.55-3.85,15.13,1.09,29.83-1.78,54.1-9.76,83.07,2.83,2.63,6.41,2.62,9.52,3.24C97,316,107.38,290.06,111.52,264.86c1.37-8.38.59-14.24-.22-24.17Z"/><path class="cls-7" d="M81.78,337.66l-.39-.14a245.93,245.93,0,0,0,13.85-69.36l.07-1.46c.29-5.95.58-12.1,2.37-17.86l.4.12c-1.77,5.71-2.07,11.84-2.35,17.76l-.07,1.46A246.09,246.09,0,0,1,81.78,337.66Z"/><path class="cls-13" d="M111.3,240.69l-1.51-.16c-1.7,33.63-10.82,67.67-24.67,99,1.28.24,2.56.39,3.77.63C97,316,107.38,290.06,111.52,264.86,112.89,256.48,112.11,250.62,111.3,240.69Z"/><path class="cls-13" d="M88.55,244.07c6.73,3.55,16.31,7.33,25.32,3.69-.43-13.37-2.36-18.08,1.31-26.31,1.29-2.91,3-5.81,2.91-9-.15-5.68-6-9.9-7.08-15.49-.39-1.94-.43-4.36-2.29-5.27a5.62,5.62,0,0,0-3-.28l-6.78.6c-2.2.19-4.64.51-6,2.14s-1.09,4.1-.7,6.21c1.35,7.38,2.67,14.81,2.51,22.3S92.88,237.8,88.55,244.07Z"/><path class="cls-4" d="M94.06,246.41l-.38-.17c5.4-11.45,7.42-25,5.4-36.37l.42-.08C101.52,221.2,99.49,234.89,94.06,246.41Z"/><path class="cls-11" d="M118.09,212.49c-.15-5.68-6-9.9-7.08-15.49-.39-1.94-.43-4.36-2.29-5.27a3.21,3.21,0,0,0-1-.29c1.33,6.15,9.61,14.62,8,19.47-5.43,16.57-3.18,24.14-3.74,37.48a18.16,18.16,0,0,0,1.84-.63c-.43-13.37-2.36-18.08,1.31-26.31C116.47,218.54,118.18,215.64,118.09,212.49Z"/><path class="cls-4" d="M94.52,205.37c-.53-3.2,1.58-6.38,4.38-8s6.13-2,9.37-2.12a3.3,3.3,0,0,1,2.82.81c.7.87.38,2.15-.07,3.18a18.54,18.54,0,0,1-9.06,9.23,6.18,6.18,0,0,1-4.6.62A4.71,4.71,0,0,1,94.52,205.37Z"/><path class="cls-16" d="M154,169.41l1.48-.9c.22-.14.52-.27.73-.11a.45.45,0,0,1,.1.49,1.49,1.49,0,0,1-.3.44,9.42,9.42,0,0,0-2.11,4.19A10.38,10.38,0,0,1,154,169.41Z"/><path class="cls-16" d="M152.43,172.19a.65.65,0,0,1-.15-.24,4.18,4.18,0,0,1,.21-3.35,11.46,11.46,0,0,1,2-2.77,15.15,15.15,0,0,0,2.16-2.7c.57.43.11,1.26-.15,1.84a10.08,10.08,0,0,1-1,1.58,12.33,12.33,0,0,0-2.29,4.87,1.43,1.43,0,0,1-.21.64A.45.45,0,0,1,152.43,172.19Z"/><path class="cls-12" d="M155.54,161.54c1.1.4-.62,3.28-.89,5.21-.39,2.79.24,3.76-.41,7.09a3,3,0,0,1-2.59,2.31c-2.85.43-5.49,2.24-7.8,4.09-2.85,2.27-5.81,4.79-9.42,5.23.16-3,.76-6.07,3.31-7.66s6.34-3,8.93-4.49C151.36,170.55,153.35,164.81,155.54,161.54Z"/><path class="cls-13" d="M142.8,174.73c.72,1.35,1.87,3.8,3,4.79-13,11.1-28.15,19.42-43.84,26.2a8.11,8.11,0,0,1-4.38,1,5.14,5.14,0,0,1-3.81-3.41,9.54,9.54,0,0,1-.15-5.3,8.69,8.69,0,0,1,1.93-4.15c1.46-1.56,3.63-2.18,5.68-2.76A228.62,228.62,0,0,0,142.8,174.73Z"/><path class="cls-11" d="M143,175l-.16-.3a228.62,228.62,0,0,1-41.54,16.34c-2.05.58-4.22,1.2-5.68,2.76a6.49,6.49,0,0,0-1,1.45q3.84-1.36,7.81-2.6C116.64,188.73,130.86,184,143,175Z"/><path class="cls-9" d="M236.61,329.81l-.12-.23a27.25,27.25,0,0,1-2.26-7.6c-.25-1.29-.38-2.9-.58-4.32h-6.08c.5,1.74,1.13,3.47,1.48,5.23a10,10,0,0,1-.08,4.84C231.68,328.86,234.15,330.81,236.61,329.81Z"/><path class="cls-4" d="M228.54,327.46a5.8,5.8,0,0,1-1,1.81,5.34,5.34,0,0,1-3.18,1.93,11.3,11.3,0,0,0-4,1.39c-1.15.81-2.12,1.68-1.72,3.31,1.92.81,5.59.37,8.31.22a7,7,0,0,0,2.78-.53,5.34,5.34,0,0,1,1.4-.68,6.29,6.29,0,0,1,2.61.57,8.07,8.07,0,0,0,4.44-.43,13,13,0,0,0-1.48-5.71C234.26,330.34,231.25,328.59,228.54,327.46Z"/><path class="cls-4" d="M227.33,228.59H204.44c.62,14.34,2.29,32.42,4.4,43.24,2.39,12.29,5.13,24.62,9.58,36.33L225,325.44h11C219.1,251.17,229.15,248,227.33,228.59Z"/><path class="cls-13" d="M236.91,325.33a12.75,12.75,0,0,1-.92-5.18,26.63,26.63,0,0,1-12.88,1.8,32.37,32.37,0,0,0,1.5,4.94A23.84,23.84,0,0,0,236.91,325.33Z"/><path class="cls-9" d="M210.17,335.74l-.09-.23a22.24,22.24,0,0,1-1.34-7.6c-.08-1.29,0-2.9,0-4.32H202c.29,1.74.71,3.47.83,5.23a9.34,9.34,0,0,1-.86,4.85C204.79,334.8,207.25,336.74,210.17,335.74Z"/><path class="cls-4" d="M201.5,333.39a7.07,7.07,0,0,1-1.41,1.81,7.48,7.48,0,0,1-3.86,1.94,15.31,15.31,0,0,0-4.69,1.38c-1.42.81-2.63,1.68-2.45,3.31,2,.81,6.21.37,9.28.22a9.31,9.31,0,0,0,3.2-.53,7.59,7.59,0,0,1,1.68-.68,7.35,7.35,0,0,1,2.84.57,10.43,10.43,0,0,0,5-.43,10.75,10.75,0,0,0-.75-5.71C207.45,336.27,204.36,334.52,201.5,333.39Z"/><path class="cls-4" d="M195.46,228.59c-3.7,33.44-.92,70.64,2.63,102.75H209.7c-.75-20.36-1.19-38.25,2.36-58.17,3.14-17.59,5.24-24.69,8-35.74.8-3.17,1.6-6,2.08-8.84Z"/><path class="cls-7" d="M211.51,279l-.42,0a93.83,93.83,0,0,1,5.65-25.57c.41-1.09.84-2.18,1.27-3.27a55.25,55.25,0,0,0,3.56-11.31l.41.06a55.52,55.52,0,0,1-3.58,11.4c-.43,1.09-.86,2.18-1.27,3.27A93,93,0,0,0,211.51,279Z"/><path class="cls-13" d="M210.39,331.41a25.76,25.76,0,0,1-.29-5.62,43,43,0,0,1-13,.74,15.2,15.2,0,0,1,.33,5.58A34.35,34.35,0,0,0,210.39,331.41Z"/><path class="cls-13" d="M207,240.29a21.77,21.77,0,0,1-3.71-8.11l16-16.3a9.74,9.74,0,0,0,2.66-3.76c.63-2.07-.19-4.28-1-6.29l-3.67-9.17c-1.34-3.36-2.7-6.89-2.27-10.47s3.33-7.16,6.94-7a7.36,7.36,0,0,1,5.59,3.72,21.47,21.47,0,0,1,2.32,6.56q2.21,9.24,4.39,18.5a16.41,16.41,0,0,1,.65,6.09c-.4,2.66-2.08,4.94-3.81,7A78.09,78.09,0,0,1,207,240.29Z"/><path class="cls-4" d="M203.66,240.7a21.66,21.66,0,0,1-3.71-8.1l16-16.31a9.64,9.64,0,0,0,2.66-3.75c.63-2.08-.19-4.28-1-6.3L214,197.08c-1.34-3.36-2.7-6.89-2.27-10.48s3.33-7.15,6.94-7a7.35,7.35,0,0,1,5.59,3.71,21.56,21.56,0,0,1,2.32,6.56q2.2,9.25,4.39,18.51a16.38,16.38,0,0,1,.65,6.09c-.4,2.66-2.08,4.94-3.81,7A78.05,78.05,0,0,1,203.66,240.7Z"/><path class="cls-14" d="M221.47,155.7c-1.85-2.28-5.12-2.76-8.74-2.21l-3,.78a22.09,22.09,0,0,0-1.56,3.73c-.1.41.39,1.76.17,2.17-2,3.55-2.05,7.78-2.64,10.36a2.31,2.31,0,0,0-.08,1c.17.74,1,1.13,1.69,1.34A12.5,12.5,0,0,0,223,164.06,9.56,9.56,0,0,0,221.47,155.7Z"/><path class="cls-15" d="M206,172.25a3.07,3.07,0,0,0,1.28.66,12.41,12.41,0,0,0,13.74-4.77C216,167.75,209.83,168.94,206,172.25Z"/><path class="cls-14" d="M210.4,171.53a41.56,41.56,0,0,1-3.73,9.11l14.62,1.74a57.88,57.88,0,0,1-.86-13.59c-2.32-5.78-4.55-2.85-8.12-.06A5.41,5.41,0,0,0,210.4,171.53Z"/><path class="cls-15" d="M211.12,158.83a6.66,6.66,0,0,1,1.13,4,10.45,10.45,0,0,0,.67,4.17,9.31,9.31,0,0,0,2.06,2.46l3.89,3.66a20.55,20.55,0,0,0,2.5-8.72,10.68,10.68,0,0,0-.56-4.46,9.8,9.8,0,0,0-3.35-4.12,9.45,9.45,0,0,0-5-2,3.83,3.83,0,0,0-2.31.48,2.1,2.1,0,0,0-1,2C209.31,157.38,210.43,158,211.12,158.83Z"/><path class="cls-4" d="M223.72,160.91a6.85,6.85,0,0,0-3.27-8.08c-3.16-1.72-7.22-.78-10.5-2.29,0,.29,0,.57.05.85a1.84,1.84,0,0,1-1.39-1.6,6.76,6.76,0,0,0-.64,2.87l-.22-1.16a4.23,4.23,0,0,0,.91,3.9,8.15,8.15,0,0,0,3.47,2.27c.4.15.81.29,1.22.41a12.87,12.87,0,0,0-.78,2.56,7.34,7.34,0,0,1-.79,1.79.88.88,0,0,0-.19.43,1,1,0,0,0,.09.4,9.83,9.83,0,0,1,.47,1.77,13.79,13.79,0,0,1,.63-1.73,6.77,6.77,0,0,1,.8-1.27,9.22,9.22,0,0,0,.44,1,21.06,21.06,0,0,0,3.14,4.1,14.29,14.29,0,0,1,2.88,4.27,16.57,16.57,0,0,1,2.34-3.88,8.51,8.51,0,0,0,1.81-4.11A5.23,5.23,0,0,0,223.72,160.91Z"/><path class="cls-14" d="M212.64,163.69a4.22,4.22,0,0,1,.59-1.51,1.49,1.49,0,0,1,1.39-.65,1.75,1.75,0,0,1,1.15,1.4,4.16,4.16,0,0,1-1.87,4.42,1.68,1.68,0,0,1-1.1.29.77.77,0,0,1-.66-.81Z"/><path class="cls-13" d="M210.91,154.93a.37.37,0,0,0,.21,0c.07,0,.13-.1.11-.17s-.09-.11-.16-.14a3.87,3.87,0,0,1-2.08-2.43,3.54,3.54,0,0,0,.49,1.72A2.27,2.27,0,0,0,210.91,154.93Z"/><path class="cls-13" d="M215.16,155.11c.48-.15.91-.56,1.41-.48s.69.44,1.08.52a4.63,4.63,0,0,0,.91-.05,1.63,1.63,0,0,1,1.17.54,4.07,4.07,0,0,1,.72,1.11.75.75,0,0,1,1.09-.1,2.32,2.32,0,0,1,.62,1,2,2,0,0,0,.65,1,8.76,8.76,0,0,0-.78-2.53,3,3,0,0,0-2-1.58c-.35-.05-.71,0-1.07-.06a7.36,7.36,0,0,1-1.22-.34c-2.27-.71-4.8-.38-7-1.33a4.42,4.42,0,0,0,2.2,2.38c0-.28,0-.56,0-.84A2.85,2.85,0,0,0,215.16,155.11Z"/><path class="cls-11" d="M208.54,177.61c4.83-.42,9.76-.84,14.49.23a9,9,0,0,1-.65-4.05,28.61,28.61,0,0,0-7.4.37A11.91,11.91,0,0,0,208.54,177.61Z"/><path class="cls-11" d="M227.45,240.61l-33.66,1.84.17-6.34a324.29,324.29,0,0,1,34.58.58C228.18,238,227.81,239.3,227.45,240.61Z"/><path class="cls-13" d="M228.82,237.28c3.41-11.42-2.38-23.13-.74-49.09.16-2.51-2.24-10.08-4.6-11-5.41-2-11.14-1.33-16.72.21l-.09,0a16.19,16.19,0,0,0-10.18,13.4c-.6,8.34-2.1,31.89-3.41,43.68-.17,1.55,1.08,3.28.89,4.37Z"/><path class="cls-4" d="M208.41,241.76l-.34-.25a2.06,2.06,0,0,0-.06-2.45l-.08-.1.06-.12c.55-1.08,0-2.34-.52-3.55-.14-.32-.27-.63-.39-.94-1.14-3-.37-6.3.38-9.47l.16-.7a77.47,77.47,0,0,0,1.66-24.71l.41,0A78,78,0,0,1,208,224.27l-.17.71c-.73,3.1-1.48,6.32-.39,9.22.11.31.25.61.38.93.55,1.26,1.11,2.56.57,3.78A2.5,2.5,0,0,1,208.41,241.76Z"/><path class="cls-4" d="M207,204.16a4.17,4.17,0,0,0,2.23-1.55,28,28,0,0,0,6.23-12c.53-2.2.64-4.88-1.07-6.36-1.18-1-2.86-1.15-4.42-1.23a47.58,47.58,0,0,0-6.54,0c-2.76.24-5.76,1.18-7.13,3.59a6.87,6.87,0,0,0-.42,5.23,15.78,15.78,0,0,0,2.53,4.73,46.61,46.61,0,0,0,5.09,5.95C204.48,203.43,205.69,204.4,207,204.16Z"/><path class="cls-14" d="M167.54,171.74a4.8,4.8,0,0,1-1.1-2.54,14.71,14.71,0,0,0,.12-1.62c0-.77-.19-1.52-.24-2.28a6.12,6.12,0,0,1,.35-2.37c.08-.22.17-.47,0-.66a.45.45,0,0,0-.44-.17.85.85,0,0,0-.43.22,2.39,2.39,0,0,0-.83,1.39,4.81,4.81,0,0,1-.26,1.15,1.6,1.6,0,0,1-.28.4,6.43,6.43,0,0,0-1.46-2.37c-.5-.49-1.28-1.69-1.73-2.22a7.2,7.2,0,0,0-1.14-1.07c-.28-.13-.54.21-.6.51-1.36-.93-1.52-.3-1.24.31-.47-.1-1-.41-1.24,0s1.89,2.64,2.22,3c-.17-.07-2.21-1.84-2.4-1.84s-.3.37-.37.54.38.86.63,1.09a7.79,7.79,0,0,1,1.67,2.33c.91,2.87,1,3.22,1.05,3.45a7.39,7.39,0,0,0,1.28,3c1.34,1.9,2.78,2.11,4.37,3.79q2-1.12,4.12-2.09A14.66,14.66,0,0,1,167.54,171.74Z"/><path class="cls-15" d="M169.63,173.74a14.66,14.66,0,0,1-2.09-2,5.19,5.19,0,0,1-.89-1.63,5.05,5.05,0,0,0-4.38,3.17,32.41,32.41,0,0,1,3.24,2.55Q167.54,174.71,169.63,173.74Z"/><path class="cls-14" d="M166.65,170.11a4,4,0,0,1-.21-.91,14.71,14.71,0,0,0,.12-1.62c0-.77-.19-1.52-.24-2.28a6.12,6.12,0,0,1,.35-2.37c.08-.22.17-.47,0-.66a.45.45,0,0,0-.44-.17.85.85,0,0,0-.43.22,2.39,2.39,0,0,0-.83,1.39,4.81,4.81,0,0,1-.26,1.15,1.6,1.6,0,0,1-.28.4,6.43,6.43,0,0,0-1.46-2.37c-.5-.49-1.28-1.69-1.73-2.22a7.2,7.2,0,0,0-1.14-1.07c-.28-.13-.54.21-.6.51-1.36-.93-1.52-.3-1.24.31-.47-.1-1-.41-1.24,0s1.89,2.64,2.22,3c-.17-.07-2.21-1.84-2.4-1.84s-.3.37-.37.54.38.86.63,1.09a7.79,7.79,0,0,1,1.67,2.33c.91,2.87,1,3.22,1.05,3.45a7.39,7.39,0,0,0,1.28,3,6.58,6.58,0,0,0,1.13,1.24A5.05,5.05,0,0,1,166.65,170.11Z"/><path class="cls-11" d="M167,170.53a1.28,1.28,0,0,0-.7,0,4.75,4.75,0,0,0-3.66,4.64,16.23,16.23,0,0,1,3,2.3,3.85,3.85,0,0,1,.67-3.14c.6-.92,1.41-1.69,2.07-2.58C167.74,171.63,167.58,170.74,167,170.53Z"/><path class="cls-13" d="M215.23,190.43c-1.12,2.56-2.42,5.3-4.9,6.57-2.2,1.13-4.83.84-7.26.39-14.84-2.72-28.75-9.59-39.13-20.54-.15-2,1.46-5.74,3.34-5.86s5.05,2.33,6.82,3a98.61,98.61,0,0,0,34.16,6.28c2.79,0,6.08.11,7.63,2.44S216.33,188,215.23,190.43Z"/><path class="cls-4" d="M208.8,194.85c-6.43,0-12.16-2.2-18.6-4.68l-1.78-.68c-9.52-3.63-18-9.28-24.31-13.8l.25-.34c6.29,4.5,14.73,10.14,24.21,13.75l1.78.68c8,3.08,14.89,5.73,23.38,4.21l.08.41A28.26,28.26,0,0,1,208.8,194.85Z"/></g></g></svg>